<?xml version="1.0" encoding="UTF-8"?>
<svg version="1.1" viewBox="0 0 900 900" width="130" height="140" xmlns="http://www.w3.org/2000/svg">
<path transform="translate(0)" d="m0 0h900v900h-900z" fill="#3092B9"/>
<path transform="translate(421,212)" d="m0 0h6l5 13 8 19 11 2 10 2 12 5 13 9 7 7 2-4 4-14 9-15 7-8 12-9 10-4h9l9 3 7 8 2 5v10l-4 15-7 13-10 13-1 3 5-1h14l13 4 11 7 8 9 3 7v9l-4 7-7 7-13 6-10 2h-22l-16-3-2 13-4 11-6 12 11 5 9 4v6l-2 1h-7l-12-6-5-6-28 9-1 2 9 4 6 4 1 4-1 2h-8l-10-5-9-9-2-1-15-1-11-4-12-7-9-9-9-14v-2l-4 1-7 10-1 1 1 7 10 23 2 6v5l-3 1-5-5-12-27v-3h-7l-5-3 1-7 1-3-7-8-8-8v-2l-6-1-16 7-9 2h-16l-7-3-5-4-1-5 2-5 5-4 7-3 6-1-6-7-2-4v-8l4-4 9 1 13 7 5 3-1-4v-14l4-9 5-4 7 1 5 5 4 8 1 6v21l-3 12v5l10 8 7 8 4 2 4-4 6-12-1-9-3-11-1-10v-9l2-12v-8l-4-5-9-7h-10l-5-4v-5l4-4h5l9 8 13 9 3-1 6-9 11-11 11-6h2l-2-9-5-11-8-4-1-5z" fill="#FFFFFE"/>
<path transform="translate(440,250)" d="m0 0 14 1 13 5 11 7 10 9 7 10 4 9v8l-3 11-10 13-10 8-15 8-14 4-6 1h-8l-14-3-9-6-5-6-4-9-1-6v-13l4-20 5 1 5 3h11l9-4 7-7 1-5-2-5-7-3-9 3-3 3-1 6 5-1 5-5h5v4l-5 5-8 4h-5l-5-5 1-6 6-9 9-6 6-3z" fill="#3092B9"/>
<path transform="translate(185,460)" d="m0 0h22l13 4 10 6 5 7 1 3v11l-5 8-3 3 14 8 8 8 4 8 1 4v9l-4 9-7 8-8 5-13 4-6 1h-18l-9-3-4-4-2-7-3-39-2-28v-17l2-6z" fill="#FFFFFE"/>
<path transform="translate(543,222)" d="m0 0 8 2 4 5 1 3-1 13-5 13-6 11-11 14-12 12-5 3-5-1-9-15-1-3v-10l5-16 6-10 9-10 9-7 7-3z" fill="#3092B9"/>
<path transform="translate(545,292)" d="m0 0h18l11 4 9 6 4 5 1 3v10l-7 8-6 4-13 4h-26l-9-2-5-5-6-19 1-5 8-6 12-5z" fill="#3092B9"/>
<path transform="translate(289,491)" d="m0 0h12l6 3 4 5 1 3v14l-4 6-8 7-5 2-16 1v10l3 6 8 7 11 1 11-4 7-4 5 1v6l-6 5-12 5-5 1h-12l-9-3-6-5-5-10-1-4v-24l3-11 5-9 7-6z" fill="#FFFFFE"/>
<path transform="translate(683,492)" d="m0 0h9l7 3 5 7v14l-5 8-8 7-11 2h-10l1 9 5 10 4 2 5 2h8l12-3 10-4 5 1-1 6-9 5-11 4-5 1h-9l-9-2-8-5-6-7-3-9v-17l3-13 6-11 8-7z" fill="#FFFFFE"/>
<path transform="translate(361,491)" d="m0 0 10 1 6 4 3 6 1 9-2 8-5 6-10 5-4 1h-9l-6-1 1 11 4 8 7 6 10 1 9-2 9-5h5l1 5-5 5-9 5-8 2h-11l-9-3-9-8-5-12-1-6v-13l3-12 6-10 7-7 6-3z" fill="#FFFFFE"/>
<path transform="translate(506,306)" d="m0 0 3 1 1 2v13l-5 13-6 9-9 10-14 9-11 4-6 1h-13l-15-2-10-4-7-7-4-7v-3l7 1 10 3 7 1h10l16-3 12-5 12-8 12-12 8-14z" fill="#3092B9"/>
<path transform="translate(202,515)" d="m0 0h23l12 5 5 6 3 8-2 9-9 7-12 4-13 2-10-1-3-3-2-10-1-10v-14l2-2z" fill="#3092B9"/>
<path transform="translate(530,460)" d="m0 0h5l3 3v12l-3 24h9l4 2 1 5-2 2-13 2-1 7 4 22 4 12 3 4h5l8-10 4-1 3 2-1 7-4 6-6 5-6 2-8-1-7-6-4-8-3-13-3-23-1-2-10-1-3-3v-5l4-2 11-2v-11l3-20 3-8z" fill="#FFFFFE"/>
<path transform="translate(409,459)" d="m0 0h7l3 5 3 45 4 42 1 4h8l31-6h5l2 4-1 5-10 4-16 3-9 1h-13l-6-2-2-3-3-20-4-44-1-14v-23z" fill="#FFFFFE"/>
<path transform="translate(584,460)" d="m0 0 5 1 2 2v14l-2 13v9l11 1 2 1v5l-3 2-12 2v9l3 19 4 13 3 4h5l8-10 5-1 2 4-1 6-7 8-8 4-9-1-7-6-5-12-3-18-2-17h-11l-3-2v-5l5-3 9-2 4-29 3-9z" fill="#FFFFFE"/>
<path transform="translate(514,331)" d="m0 0 2 1v15l-2 9-5 9-6 7-10 6-12 4-13 2h-11l-17-5-8-5v-1h28l14-3 9-4 10-6 7-6 9-14z" fill="#3092B9"/>
<path transform="translate(640,460)" d="m0 0 6 1 1 3-6 86-1 11-2 3h-5l-2-5v-31l4-53 2-12z" fill="#FFFFFE"/>
<path transform="translate(195,471)" d="m0 0h13l10 4 8 7v7l-5 6-14 7-7 2h-7l-3-7-1-9v-12l3-4z" fill="#3092B9"/>
<path transform="translate(482,500)" d="m0 0h7l3 4 3 17 1 12v30l-2 2h-6l-2-4-4-44-1-7v-9z" fill="#FFFFFE"/>
<path transform="translate(356,287)" d="m0 0 5 1 3 9 1 17-2 15-1 2-4-2-5-11-1-5v-21l2-4z" fill="#3092B9"/>
<path transform="translate(292,502)" d="m0 0 9 1 3 4v7l-6 7-8 3-8-1-2-2v-7l6-9z" fill="#3092B9"/>
<path transform="translate(319,329)" d="m0 0h10l17 5 2 2v3l-11 4h-16l-10-4-2-3 3-4z" fill="#3092B9"/>
<path transform="translate(360,500)" d="m0 0h6l5 6v7l-4 5-9 4-9-1-2-2 1-6 6-9 3-3z" fill="#3092B9"/>
<path transform="translate(687,502)" d="m0 0 6 1 3 5-1 9-5 4-9 3-7-1-2-2 1-5 6-9 5-4z" fill="#3092B9"/>
<path transform="translate(321,306)" d="m0 0h6l13 8 9 8 2 3v4l-9-1-11-6-9-9z" fill="#3092B9"/>
<path transform="translate(480,472)" d="m0 0h6l4 5-1 7-6 5-4 1-4-2-1-2 1-9z" fill="#FFFFFE"/>
<path transform="translate(446,292)" d="m0 0h5l5 8v8l-1 1h-5l-5-6-1-9z" fill="#FFFFFE"/>
<path transform="translate(417,300)" d="m0 0h5l4 8-1 7-3 2-4-1-2-5v-10z" fill="#FFFFFE"/>
<path transform="translate(444,320)" d="m0 0 4 1-1 7-4 4-4 1-6-3-3-3 2-4 5 2 4 2 2-6z" fill="#FFFFFE"/>
</svg>
