<?xml version="1.0" encoding="UTF-8"?>
<svg version="1.1" viewBox="0 0 1648 1164" width="1280" height="1280" xmlns="http://www.w3.org/2000/svg">
<path transform="translate(0)" d="m0 0h1648v1164h-1648z" fill="#D4E8EA"/>
<path transform="translate(1130,287)" d="m0 0 16 1 11 4 11 8 8 11 3 7 1 5 1 24v509l-1 13-5 13-11 12-12 7-10 3h-14l-13-4-11-7-9-10-5-13-3-15-7-3-25-8-36-11-29-9-35-11-21-6-38-12-50-15-31-10-38-11-24-8-3-2v-307l10-4 44-14 46-14 28-9 27-8 26-8 37-11 28-9 24-7 31-10 30-9 6-3 3-16 6-12 7-9 9-7 10-4z" fill="#007976"/>
<path transform="translate(676,448)" d="m0 0h12l1 134v301l-1 57-4 11-5 6-14 7-12 2h-11l-13-2-13-7-5-7-4-13-9-49-5-33-6-33-7-41-6-36-2-11-1-1-62-7-20-3-15-5-11-8-9-8-8-16-2-9-1-9-1-22v-95l1-32 3-13 8-15 9-10 7-6 11-5 12-3 22-3 61-6 43-4z" fill="#007976"/>
<path transform="translate(1244,519)" d="m0 0 9 1 15 6 10 6 14 12 8 14 3 10 1 7v42l-2 10-4 9-6 10-9 9-14 10-15 5-9 1-2-2-1-31v-97l1-21z" fill="#007976"/>
</svg>
