<?xml version="1.0" encoding="UTF-8"?>
<svg version="1.1" viewBox="0 0 1680 1220" width="1280" height="1280" xmlns="http://www.w3.org/2000/svg">
<path transform="translate(0)" d="m0 0h1680v1220h-1680z" fill="#D4E9EA"/>
<path transform="translate(725,671)" d="m0 0h86l37 1 27 2 23 3 22 6 30 15 16 10 12 9 14 12 9 10 11 14 12 19 8 16 7 21 5 27 3 30 2 75v48l-3 10-5 8-10 6-3 1h-637l-8-3-9-8-3-6-1-11v-81l1-37 3-33 4-22 6-21 7-16 9-16 10-14 12-14 13-13 10-8 13-9 15-9 18-8 21-6 24-4 22-2 22-1z" fill="#00807E"/>
<path transform="translate(704,209)" d="m0 0 28 2 20 4 21 7 17 8 19 12 11 9 13 12 10 11 12 17 9 16 8 21 5 17 3 18 1 13v15l-4 25-5 19-9 22-6 11-11 16-11 13-14 14-9 7-16 11-16 8-15 6-12 4-24 5-11 1h-19l-21-3-19-5-19-7-19-10-20-14-8-8-8-7-9-10-10-14-7-11-9-19-7-22-3-13-2-16v-23l2-19 5-21 8-21 10-19 12-17 14-15 7-7 14-11 18-11 19-9 19-6 19-4z" fill="#00807E"/>
<path transform="translate(725,671)" d="m0 0h86l37 1 27 2 23 3 22 6 30 15 16 10 12 9 14 12 9 10 11 14 12 19 8 16 7 21 5 27 3 30 2 75v48l-3 10-5 8-10 6-3 1h-637l-8-3-9-8-3-6-1-11v-81l1-37 3-33 4-22 6-21 7-16 9-16 10-14 12-14 13-13 10-8 13-9 15-9 18-8 21-6 24-4 22-2 22-1zm-136 48-39 2-22 3-19 5-16 7-16 10-11 9-8 7-9 11-7 9-9 15-6 15-4 16-3 22-2 32-1 36v48l1 1h582l1-2v-60l-1-29-2-26-3-20-4-17-8-18-10-16-11-13-8-8-11-9-21-14-16-7-22-5-30-3-25-1z" fill="#011A19"/>
<path transform="translate(704,209)" d="m0 0 28 2 20 4 21 7 17 8 19 12 11 9 13 12 10 11 12 17 9 16 8 21 5 17 3 18 1 13v15l-4 25-5 19-9 22-6 11-11 16-11 13-14 14-9 7-16 11-16 8-15 6-12 4-24 5-11 1h-19l-21-3-19-5-19-7-19-10-20-14-8-8-8-7-9-10-10-14-7-11-9-19-7-22-3-13-2-16v-23l2-19 5-21 8-21 10-19 12-17 14-15 7-7 14-11 18-11 19-9 19-6 19-4zm-3 48-21 3-21 7-15 8-14 10-13 12-11 14-9 16-7 18-5 25v21l3 18 7 21 8 16 12 16 16 16 16 11 15 7 18 6 15 3h28l16-3 20-7 16-8 11-8 10-9 6-6v-2h2l4-6 9-13 8-17 5-15 3-19v-22l-2-14-5-18-8-16-7-12-7-9-8-9-8-7-18-12-19-9-18-5-17-2z" fill="#011918"/>
<path transform="translate(1136,692)" d="m0 0h11l10 4 13 8 14 10 14 12 12 12 11 14 10 15 10 19 6 16 5 22 3 20 2 23 1 39v88l-3 8-4 5-7 5-5 2h-7l-10-3-7-6-4-7-1-4-1-67-1-44-2-32-4-26-5-16-9-19-10-14-12-13-7-7-13-10-18-11-5-4-5-9v-12l5-10 8-6z" fill="#011C1B"/>
<path transform="translate(988,233)" d="m0 0h12l14 7 13 10 10 9 12 12 12 16 9 15 9 19 6 19 3 15 1 6v42l-5 25-9 25-7 14-10 15-11 14-17 17-16 12-13 7-8 1-9-3-6-4-6-9-1-3v-13l4-7 9-8 13-9 18-18 10-16 7-14 6-19 2-13v-29l-3-16-6-18-10-19-10-13-13-13-20-15-6-8-1-3v-13l4-8 8-7z" fill="#011C1B"/>
<path transform="translate(725,671)" d="m0 0h86l37 1 27 2 23 3 22 6 2 2-30-6-18-2-11-1-56-2h-201l-38 1-38 3-17 3h-5l4-2 24-4 22-2 22-1z" fill="#00807E"/>
<path transform="translate(817,511)" d="m0 0 2 1-11 9-12 8-16 8-15 6-12 4-24 5-11 1h-19l-21-3-19-5-19-7-19-10-1-2 5 2 21 10 19 6 20 4 13 1h18l23-2 17-4 18-6 22-11 12-8z" fill="#00807E"/>
<path transform="translate(1232,771)" d="m0 0 3 3 8 17 5 15 5 24 2 14 2 23 1 39v88l-2 4-1-89-1-43-3-32-4-22-5-17-7-16-3-6z" fill="#00807E"/>
<path transform="translate(864,310)" d="m0 0 3 4 9 27 4 22 1 13v15l-4 25-5 19-9 22-6 11-11 16-11 13-14 14-2-1 18-18 11-15 8-13 8-16 7-19 4-17 2-15v-32l-3-20-5-19-5-13z" fill="#00807E"/>
<path transform="translate(1024,318)" d="m0 0 3 3 9 19 4 13 3 16v28l-4 18-4 13-8 16-8 13-11 13-10 9-2-1 19-19 10-16 7-14 6-19 2-13v-29l-3-16-6-18-7-14z" fill="#00807E"/>
</svg>
