<?xml version="1.0" encoding="UTF-8"?>
<svg version="1.1" viewBox="0 0 1668 1152" width="1280" height="1280" xmlns="http://www.w3.org/2000/svg">
<path transform="translate(0)" d="m0 0h1668v1152h-1668z" fill="#D3E9EB"/>
<path transform="translate(1094,321)" d="m0 0 7 1 2 2 1 6v443l-1 8-2 1-20 1-373-1-5-2-2-2 1-7 11-25 16-37 14-32 13-30 17-39 13-30 21-49 7-14 2-2h5l10 9 14 15 26 26 7 8 37 37 7 8 13 13 7 8 8 8 4 5 2 1 3-9 12-29 17-41 15-36 12-29 14-34 15-36 17-41 13-32 16-38z" fill="#007F7C"/>
<path transform="translate(1094,321)" d="m0 0 7 1 2 2 1 6v443l-1 8-2 1-20 1-373-1-5-2-2-2 1-7 11-25 16-37 14-32 13-30 17-39 13-30 21-49 7-14 2-2h5l10 9 14 15 26 26 7 8 37 37 7 8 13 13 7 8 8 8 4 5 2 1 3-9 12-29 17-41 15-36 12-29 14-34 15-36 17-41 13-32 16-38zm-5 45-5 10-12 29-17 41-10 24-19 46-34 82-11 26-13 31-7 14h-5l-10-9-14-15-35-35-7-8-10-10-7-8-23-23-7-8-18-18-2-3h-3l-7 18-28 64-13 30-18 41-15 35-16 36-5 10v2l7 1h365l1-1-1-402z" fill="#010909"/>
<path transform="translate(593,322)" d="m0 0h8l3 3v571h499v11l-2 3h-506l-4-1-1-3-1-382v-170l1-30z" fill="#010E0F"/>
</svg>
