<?xml version="1.0" encoding="UTF-8"?>
<svg version="1.1" viewBox="0 0 1672 1180" width="1280" height="1280" xmlns="http://www.w3.org/2000/svg">
<path transform="translate(0)" d="m0 0h1672v1180h-1672z" fill="#D3E7EB"/>
<path transform="translate(861,241)" d="m0 0 13 4 314 157 8 6 4 6 1 4 1 33-1 295-3 7-5 5-8 5-15 8-23 11-278 139-3 1h-10l-12-5-308-154-10-8-4-9v-330l5-8 9-7 42-21 23-11 17-9 23-11 17-9 23-11 17-9 23-11 17-9 23-11 17-9 23-11 17-9 16-8 17-8z" fill="#007F80"/>
<path transform="translate(568,462)" d="m0 0 6 2 46 23 19 9 19 10 80 40 21 10 19 10 48 24 11 6 1 1v263l-5-1-262-131-3-3z" fill="#D3E7EB"/>
<path transform="translate(1151,463)" d="m0 0 4 1v259l-4 5-262 131h-4l-1-4 1-258 9-6 230-115 19-9z" fill="#D3E7EB"/>
<path transform="translate(1016,372)" d="m0 0h7l100 50v4l-19 9-19 10-222 111-5-1-100-50-1-4 10-4 19-10 228-114z" fill="#D3E7EB"/>
<path transform="translate(860,292)" d="m0 0 5 1 100 50v4l-16 7-19 10-224 112h-6l-100-50v-4l16-8 15-8 192-96 35-17z" fill="#D3E7EB"/>
</svg>
