<?xml version="1.0" encoding="UTF-8"?>
<svg version="1.1" viewBox="0 0 1668 1200" width="1280" height="1280" xmlns="http://www.w3.org/2000/svg">
<path transform="translate(0)" d="m0 0h1668v1200h-1668z" fill="#D3E7EA"/>
<path transform="translate(435,290)" d="m0 0h112l347 1 17 2 13 5 9 5 14 11 169 169 8 5 7 2 117 1 17 4 14 7 11 9 9 10 8 14 5 16 1 38v50l-2 17-5 13-6 11-9 11-10 8-10 6-18 6-8 1h-188l-13-2-15-5-12-7-13-12-58-58-8-7-58-58-7-8-23-23-8-7-9-8-9-4-89-1-10-5-6-7-3-6v-11l5-10 6-5 7-3 12-1h25l56 1 14 3 11 5 12 7 12 11 7 8 71 71 8 7 82 82 10 4 187 1 9-2 9-6 5-9 1-5v-81l-3-9-7-8-8-4-5-1-113-1-16-3-16-7-12-9-156-156-8-7-11-11-10-5-459-2-11-2-8-6-4-5-3-9 1-9 4-8 7-6z" fill="#008080"/>
<path transform="translate(480,613)" d="m0 0h187l14 1 17 5 11 6 15 13 74 74 8 7 70 70 7 8 11 10 10 5 91 1 8 4 7 8 3 8v7l-5 10-7 7-6 3h-92l-17-4-11-5-11-7-70-70-8-7-90-90-8-7-8-6-4-2-7-1h-184l-10 4-7 6-4 8v88l5 10 7 6 9 3 114 1 16 3 15 6 11 8 80 80 8 7 86 86 10 7 3 1 14 1 442 1 14 1 8 6 6 9 2 6v7l-4 8-7 7-5 3-5 1h-155l-268-1h-33l-18-2-15-5-14-9-10-9-65-65-8-7-96-96-9-5-5-1-114-1-15-3-12-5-10-6-10-9-8-9-8-16-3-11-1-15v-40l1-49 5-15 6-11 11-13 14-10 13-6z" fill="#008080"/>
</svg>
