<?xml version="1.0" encoding="UTF-8"?>
<svg version="1.1" viewBox="0 0 2048 1475" width="1280" height="1280" xmlns="http://www.w3.org/2000/svg">
<path transform="translate(0)" d="m0 0h2048v1475h-2048z" fill="#D5E9EB"/>
<path transform="translate(973,361)" d="m0 0 14 1 14 24 14 25 14 24 10 18 8 13-1 4-13 9-36 26-17 12-18 13-17 12-18 13-10 7h-4l-10-13-14-18-10-13-7-5-11-3-9 1-10 5-6 7-3 7-1 11 4 11 20 26 11 14 14 18 4 7 19 71 19 70 14 52 19 70 17 63 1 5-7 19-4 14v12l3 8 7 8 8 4 4 1h10l10-4 8-9 6-16 8-21 11-21 13-19 11-13 9-10 10-9 17-13 14-9 19-10 21-8 23-6 21-3 26-1 24 2 24 5 24 8 25 12 14 9 12 9 14 12 12 12 9 11 11 15 12 21 8 19 5 15 5 21 3 25v24l-3 26-6 24-4 7-5 3h-627l-22-4-15-5-16-8-14-9-14-12-10-11-10-14-9-17-7-20-3-15-1-9v-22l4-25 40-200 21-106 22-109 34-170 1-4z" fill="#D5E9EB"/>
<path transform="translate(762,305)" d="m0 0h239l12 2 6 4 7 7 16 28 13 22 14 25 10 17 12 21 15 26 6 13 1 8-3 10-7 10-17 12-18 13-17 12-18 13-17 12-18 13-17 12-18 13-20 14 1 8 15 56 20 74 25 92 10 37 1 1 7-8 5-6h2v-2l8-7 8-8 17-13 18-12 22-12 23-10 26-8 24-5 24-3h34l30 4 26 6 23 8 20 9 22 12 16 11 13 10 14 12 14 14 7 8 14 18 11 17 10 18 7 15 9 25 6 23 4 24 1 11v37l-3 24-5 24-6 19-7 14-11 12-11 8-13 6-12 3-14 1h-610l-27-3-25-6-17-6-16-8-14-8-16-12-14-12-12-13-13-17-11-19-9-19-6-18-5-24-1-8v-36l4-26 20-99 40-200 20-101 22-109 21-106 4-10 5-7 8-5 3-1zm211 56-193 1-8 38-22 111-22 109-22 111-20 100-21 104-5 26-2 15v22l3 19 5 17 7 16 9 15 9 11 9 10 13 11 13 8 16 8 15 5 22 4h627l5-3 4-7 6-24 3-26v-24l-3-25-7-28-8-20-8-16-9-15-13-17-14-15-7-7-11-9-14-10-15-9-21-10-24-8-24-5-24-2-26 1-21 3-26 7-22 9-17 9-16 11-10 8-13 11-7 7-9 11-9 12-12 19-10 21-10 28-6 8-5 4-8 3h-10l-8-3-6-4-6-8-2-6v-12l6-20 5-13-2-9-14-51-9-34-14-52-19-70-20-74-11-41-7-11-13-16-20-26-10-14-3-9 1-11 5-10 7-6 11-4 10 1 9 4 6 5 12 16 11 14 9 12 5-1 19-13 15-11 28-20 18-13 17-12 18-13 14-10-1-4-16-28-14-25-14-24-13-23-2-3z" fill="#7FBEC0"/>
</svg>
