<?xml version="1.0" encoding="UTF-8"?>
<svg version="1.1" viewBox="0 0 2048 1471" width="1280" height="1280" xmlns="http://www.w3.org/2000/svg">
<path transform="translate(0)" d="m0 0h2048v1471h-2048z" fill="#D3E9EA"/>
<path transform="translate(790,462)" d="m0 0h10l11 4 167 167 2 1h193l165-165 8-5 7-2h9l9 3 8 6 5 8 2 7v7l-3 10-7 9-163 163v191l4 6 164 164 4 9 1 10-3 10-6 8-10 6-3 1h-13l-7-3-8-6-162-162-2-1h-191l-8 7-94 94-8 7-60 60-10 4h-12l-9-4-7-6-5-9-1-4v-10l4-10 9-10 159-159v-194l-165-165-5-8-2-8v-7l4-11 6-7 9-5z" fill="#011A1B"/>
<path transform="translate(789,310)" d="m0 0 25 1 18 3 19 5 20 8 19 10 17 12 12 11 6 5 7 8 13 17 12 21 8 19 6 21 3 17 1 12v13l-3 10-7 9-9 5-4 1h-11l-10-4-8-8-5-12-2-26-5-19-7-16-7-12-7-9-9-10-11-10-18-11-16-7-21-5-8-1h-24l-18 3-18 6-14 7-12 8-14 12-10 12-11 18-7 17-4 15-1 7v34l3 15 5 15 8 16 8 12 9 10 11 11 15 10 16 8 21 6 14 2 16 1 9 3 10 9 4 9v14l-3 7-6 8-11 6-4 1h-14l-22-3-17-4-15-5-20-9-18-11-14-11-15-14-9-11-8-10-9-15-11-23-6-19-4-21-1-9v-30l3-21 6-22 10-24 12-20 11-14 12-13 10-9 13-10 16-10 21-10 23-7 23-4z" fill="#011B1C"/>
<path transform="translate(1351,873)" d="m0 0h25l19 3 24 7 20 9 11 6 12 8 14 11 11 10 7 8 8 10 10 15 11 21 7 20 5 23 2 18v20l-3 24-5 20-8 21-10 19-12 17-13 15-13 12-15 11-13 8-16 8-19 7-19 5-21 3h-25l-21-3-20-5-19-7-21-11-17-12-14-12-9-9-9-11-10-14-11-20-9-24-5-21-2-13v-25l5-10 8-7 10-4h10l10 4 8 7 4 8 1 3 2 25 5 21 7 16 8 14 9 11 8 9 14 11 13 8 17 7 14 4 14 2h26l20-4 15-5 17-9 14-10 15-15 11-16 7-14 6-18 3-15 1-9v-13l-3-20-4-15-7-16-7-12-10-13-12-12-16-11-16-8-14-5-15-3-24-2-10-4-9-9-4-11v-8l4-11 6-7 9-5z" fill="#011B1C"/>
<path transform="translate(1354,310)" d="m0 0 23 1 22 4 20 6 18 8 18 10 14 10 10 9 8 7 9 10 11 15 11 19 8 18 5 15 5 24 1 9v30l-4 25-6 20-9 21-9 16-10 14-10 11-5 6-16 14-21 14-16 8-15 6-26 7-23 3h-12l-10-3-6-4-6-7-4-11v-8l3-8 4-6 8-7 10-3 17-1 17-3 15-5 16-8 10-6 11-9 12-12 9-13 10-19 6-19 2-11 1-11v-12l-2-16-5-19-6-15-8-13-9-12-13-13-14-10-17-9-18-6-19-3h-24l-18 3-18 6-17 9-11 8-10 9-8 8-9 13-10 19-5 15-3 15-2 23-4 9-7 8-8 4-3 1h-11l-10-4-7-6-5-9-1-5v-20l3-19 5-19 8-21 10-19 10-14 8-10 20-20 16-12 21-12 19-8 22-6 19-3z" fill="#011B1C"/>
<path transform="translate(778,873)" d="m0 0h24l9 4 6 5 5 8 1 4v14l-5 10-9 8-10 3-24 2-20 5-16 7-14 8-13 11-10 10-10 14-8 14-7 19-4 21v25l4 20 6 17 7 14 10 14 12 13 14 11 16 9 15 6 18 4 7 1h27l20-4 15-5 17-9 11-8 10-9 11-12 7-11 8-16 5-14 3-12 1-7 1-19 3-9 9-10 7-4 4-1h11l10 4 5 4 6 9 2 8v14l-3 22-4 17-6 18-8 17-10 16-9 12-9 10-15 15-15 11-15 9-21 10-19 6-19 4-14 2h-26l-25-4-21-6-17-7-17-9-17-12-14-12-11-11-13-17-11-18-8-17-7-22-4-19-1-9v-33l3-20 4-15 8-22 11-21 12-17 11-12 15-15 15-11 15-9 16-8 24-8 20-4z" fill="#011B1C"/>
<path transform="translate(996,691)" d="m0 0h160l1 1v158l-1 1h-160z" fill="#007F7E"/>
</svg>
