<?xml version="1.0" encoding="UTF-8"?>
<svg version="1.1" viewBox="0 0 1656 1152" width="1280" height="1280" xmlns="http://www.w3.org/2000/svg">
<path transform="translate(0)" d="m0 0h1656v1152h-1656z" fill="#D3E8EB"/>
<path transform="translate(1008,169)" d="m0 0h7l6 3 6 5 7 8 10 11 7 8 12 13 10 11 7 8 14 15 9 10 7 10 1 3v9l-6 8-13 15-7 7-9 11-11 11-9 11-11 11-9 11-11 11-8 10-11 11-9 11-11 11-9 11-8 8-9 11-11 11-9 11-11 11-9 11-10 10-9 11-4 5-3 6-9 9-9 11-17 17-3 2-5 1h-86l-6-2-8-7-1-2v-102l3-6 10-11 7-8 11-12 7-8 7-7 9-11 8-8 9-11 11-11 7-8 9-10 11-12 7-8 12-13 7-8 9-10 6-10 12-13 11-12 7-8 12-13 7-8 12-13 7-8 13-14 7-8 2-3h2l2-4 9-8z" fill="#011717"/>
<path transform="translate(514,533)" d="m0 0h125l7 3 5 6 1 3v11l-4 6-6 5-6 1-124 1-13 3-10 5-9 7-9 9-9 16-5 15-1 7v20l3 14 7 17 8 11 7 7 14 9 12 4 5 1 509 1 20 4 19 9 14 10 11 11 11 16 8 17 5 17 2 13v22l-3 17-6 18-7 14-10 14-13 13-15 10-16 7-17 4h-361l-7-4-4-5-1-3v-11l5-7 7-4 351-1 13-2 11-4 12-8 9-9 7-11 5-11 3-11 1-6v-23l-4-15-8-16-8-11-8-7-12-7-9-3-6-1-502-1-18-2-18-6-13-7-13-10-12-12-9-14-7-14-4-11-3-14-1-8v-18l2-16 5-18 8-16 9-14 10-11 14-11 17-9 13-4z" fill="#011A1A"/>
<path transform="translate(1010,213)" d="m0 0 4 2 14 15 7 8 8 8 9 11 8 8 7 8 3 5-7 8-9 11-13 13-9 11-14 15-7 8-10 10-8 10-7 7-9 11-12 12-9 11-9 9-9 11-13 13-9 11-7 7-9 11-3 4-3 5-9 10-12 13-7 8-12 14-12 12h-57l-1-1v-66l11-12 12-13 7-8 10-11 1-2h2l2-4 10-10 9-11 8-8 7-8 2-3h2l2-4 9-9 9-11 7-7 4-8 12-13 7-8 11-12 7-8 8-8 6-8h2l2-4 8-8 9-11 9-9 7-8 9-10 11-12z" fill="#007F7F"/>
</svg>
