<?xml version="1.0" encoding="UTF-8"?>
<svg version="1.1" viewBox="0 0 1079 1079" width="1280" height="1280" xmlns="http://www.w3.org/2000/svg">
<path transform="translate(516)" d="m0 0h47l28 2 32 4 36 7 28 7 26 8 32 12 33 15 25 13 25 15 18 12 18 13 14 11 13 11 14 12 35 35 9 11 9 10 13 17 13 18 10 15 15 25 13 24 11 23 11 27 9 25 10 35 8 37 5 34 2 21 1 17v47l-2 28-4 32-7 36-7 28-8 26-12 32-15 33-13 25-15 25-12 18-13 18-11 14-11 13-12 14-35 35-11 9-10 9-17 13-18 13-15 10-25 15-24 13-23 11-27 11-25 9-35 10-37 8-34 5-21 2-17 1h-47l-28-2-32-4-36-7-28-7-26-8-32-12-33-15-25-13-25-15-18-12-18-13-14-11-13-11-14-12-35-35-9-11-9-10-13-17-13-18-10-15-15-25-13-24-11-23-11-27-9-25-10-35-8-37-5-34-2-21-1-17v-47l2-28 4-32 7-36 7-28 8-26 12-32 15-33 13-25 15-25 12-18 13-18 11-14 11-13 12-14 35-35 11-9 10-9 17-13 18-13 15-10 25-15 24-13 23-11 27-11 25-9 35-10 37-8 34-5 21-2z" fill="#FDFDFD"/>
<path transform="translate(563,88)" d="m0 0h29l38 4 53 7 22 3 18 5 12 5 14 8 11 9 8 9 4 9 1 5v14l-4 15-8 16-9 13-11 12-9 8-14 8-7 2h-10l-8-4-3-3-1-3v-9l4-11 7-11 12-13 8-10 4-9-1-6h-8l-11 6-22 15-14 8h-6l-5-3-5-10-4-22-3-7-7-8-10-6-10-1-5 3h-2l-2 5-2 8-1 22-4 17-5 12-5 9-9 10-8 4-4 1h-11l-12-4-19-10-16-12-10-9-8-7-8-8v-2h-2l-9-11-9-9-8-5-7 1-3 3-2 7v8l5 17 10 19 10 14 13 17 5 10v8l-4 6-7 5-5 2-6 1h-8l-13-3-16-8-12-5-5-1-40-1-5-1h-7l-2 1 1 5 7 6 11 6 21 7 3 4v7l-4 5-5 2-7 1h-13l-16-2-14-5-9-7-6-8-5-12-2-9-1-19 5-19 6-12 4-5 10-8 21-13 13-12 8-8 7-8 11-10 14-8 11-5 17-5 24-5 30-5 16-4 18-6 21-6z" fill="#E26B04"/>
<path transform="translate(314,427)" d="m0 0 17 1 14 4 11 6 10 9 7 10 5 13v15l-4 10-7 9-10 6-11 4-5 1h-20l-9-3-8-6-4-6-2-6v-11l3-7 7-8 9-4 11-1 9 3 1 5-6 5-2 4v12l3 6 4 3 4-2 2-4 3-7 1-10-3-12-6-10-5-5-6-5-8-4-10-1-14 7-9 9-6 10-4 11-1 6v12l3 12 6 12 9 10 10 7 10 4 4 1h12l15-5 17-9 19-13 19-14 18-11 15-7 17-5 12-2h33l28 4 19 3h21l27-7 13-2h28l17 3 17 5 17 8 14 9 14 10 18 13 15 9 15 7 14 4h10l9-3 10-6 8-8 6-10 4-10 1-5v-17l-3-11-6-12-9-10-10-6-6-2h-12l-10 5-9 9-5 11-1 4v13l3 8 5 6 6 3 3-10-1-9-3-5-5-4 1-5 8-4 11-1 8 2 8 6 4 8v14l-5 10-7 6-12 5-6 1h-17l-11-3-9-5-8-8-4-9-1-5v-10l2-9 6-12 8-9 14-9 13-5 17-3h17l15 3 12 5 9 6 6 5 9 13 5 12 2 11v13l-4 16-6 11-9 10-9 8-15 8-16 5-14 2h-12l-19-3-18-6-16-8-16-10-16-12-13-9-13-8-14-7-14-4-14-2h-8l-14 3-20 5-14 2h-20l-25-3-24-4-9-1h-16l-14 4-17 9-16 11-18 13-18 12-16 8-17 6-14 3-8 1h-15l-16-3-14-5-11-7-10-9-7-9-5-10-3-10v-22l4-13 7-12 7-8 12-9 14-7 16-4z" fill="#4C4743"/>
<path transform="translate(921,587)" d="m0 0h9l5 3 3 3 1 3v11l-7 21-13 28-4 8v10l1 7 5-10 7-8 9-5 5-1h8l11 4 7 6 3 6 1 4v12l-3 9-7 8-2 1 11-1 11-4 10-9 3-3-1-4-6-9-2-5v-13l3-6 6-4 8-1 7 2 6 5 1 2v13l13 12 6 10 2 6v8l-4 10-7 8-13 8-8 3h-6l1-4 8-6 2-5v-11l-4-8-7-8-5 4-4 5-11 7-15 4-7 1-17 1-5 1h-22l-2 10-4 8-3 2-7-1-3-5-4-13-3-14h-2l-7 7-13 9-2 1h-14l-8-4-8-10-2-7h-2l-2 6-6 11-4 5-4 2h-7l-7-4-6-10-2-5-8 6-7 6-7 4h-14l-6-4-6-8-3-12-2-26-3-3-3-1v14l-2 24-4 17-4 8-4 2h-14l-5-3 1-5 7-10 9-16 7-17 3-10v-6l-8-3-3-3v-7l5-6 5-1 5 3 2 9 22 2 9 2 2 2 1 4 2 26 3 9 2 2h7l8-5h2l-1-8v-10l3-15 5-10 6-5 5 1 1 1 1 16 4 15 5 10 6 1 5-6 10-23 3-5 3-1 3 3 8 26 5 12 4 4h8l5-3h2v-2l4-3-1-33 2-25 4-17 5-12 6-9 4-5 9-6z" fill="#E26B04"/>
<path transform="translate(410,588)" d="m0 0h12l5 3 5 8v19l-5 20-6 16-7 16-4 7 3 9 7 10 7 4 5 1 7-2 3-2v-25l4-13 5-6 5-1 4 4 1 14 4 13 7 10 5 2 6-1 4-8 1-6 1-20 3-5 5 1 3 5 5 15 5 22 2 14v26l-3 12-6 8-8 7-10 5-7 2h-16l-10-4-7-8-2-7v-9l4-12 9-10v-2l-8-9-3-6v-3l-8 7h-2v2l-11 7-5 2h-13l-8-4-7-8-2-4-4 2-12 9-12 5h-15l-7-4-6-8-3-13-17 17-11 7-3 1h-14l-6-4-6-7-3-6-12 12-10 5h-8l-7-4-4-8-1-10 2-11 6-12 8-10 10-7 13-4h8l9 3 2 4-3 1-3-1h-11l-8 5-5 8-2 5v13l3 4h8l5-5 9-15 4-4 4 1 3 4 8 19 5 7 2 1h7l9-7 8-10 4-15 6-10 7-6 5 1 1 8v9l4 15 5 9 8 5h9l7-4-1-7-3-14-1-8v-22l3-19 4-14 6-12 7-9z" fill="#E26B04"/>
<path transform="translate(729,252)" d="m0 0 6 1 3 3 1 7-3 6-10 9-19 13-7 7-3 6v16l5 28 2 20v33l-6 8-9 1-15-8-19-6-26-5-27-3-15-1h-75l-30 3-18 3-17 5-13 6-7-1v-2h-2l-1-2v-12l4-21 1-7v-23l-4-11-1-3-7-2-12-2-3-3v-7l4-5 2-1h9l8 6 7 8 5 12 2 13v24l3 7 3 3 3 1h8l23-6 21-4 20-2h43l35 3 57 6h19l4-3h2l3-9 1-5v-10l-3-14-5-10-7-8-11-7-13-6-23-5-9-1h-144l-3-3v-8l4-4 21-3 37-3h51l30 3 26 5 28 7 6 1h13l13-4 9-6 9-10 7-11 7-6z" fill="#E26B04"/>
<path transform="translate(136,584)" d="m0 0 5 1 1 2v10l-1 5 19 2 17 4 15 6 11 7 10 10 4 8 1 4v11l-4 13-7 13-8 12-11 14-12 13-10 10h-2v2l-11 9-18 13-16 9-14 5-10 2h-9l-10-3-8-6-5-8-1-8 1-2h21l17-3 21-7 6-3h2v-95l-12 3-13 5-9 6-5 6-3 7-5-1-5-4-5-8-3-12 1-9 4-7 9-8 8-4 15-4 23-3 2-12z" fill="#E26B04"/>
<path transform="translate(705,595)" d="m0 0 5 1-5 9-8 14-2 5-1 25-2 9-2 2h-13l-11-4-5-4-1-4 3-9 7-11 11-13-2-5-8-5-3-1h-8l-10 4-9 7-7 7-7 10-9 15-8 20-4 16-1 7v13l3 11 4 6 6 5 3 1h14l13-4 11-7 8-7 2-7-16-1-7-3-7-7-5-8-1-5 1-2h58l13-1h10l2 3-8 10-10 9-11 5-7 2-2 12v26l3 19v11l-3 3-5-2-4-10-2-19-1-23-17 17-15 11-12 6-5 2-6 1h-9l-9-3-8-6-5-9-3-13v-15l3-18 8-24 9-19 8-13 9-12 9-10 10-9 14-8 7-2h13l8 3 6 4 6 5 12-10z" fill="#E26B04"/>
<path transform="translate(149,630)" d="m0 0h32l15 3 12 6 4 7-1 9-4 10-10 14-9 10-7 7-10 8-17 12-12 7h-3l-1-30v-55l2-7z" fill="#FDFDFD"/>
<path transform="translate(687,827)" d="m0 0h5l3 4-3 17-1 5 3 1-1 5-5 2-4 21 7-1-1 5-5 4h-7l-3-5 1-11 3-12h-10l-8 1-2 10-5 12-5 7-3 2-5-1-1-2 6-10 5-15-3-1 1-4 4-1 2-17 1-6-5 3-5-1-1-5 5-3 10-1 4 2 1 3v9l-2 13 7-2 11-2 5-25z" fill="#56493F"/>
<path transform="translate(784,828)" d="m0 0h7l3 3 1 9-2 10-1 11 7-2 1 3-3 5-2 2h-8l-3-3-1-3v-11l2-10v-5l-3 3-5 10-4 12-3 13h-6l-2-2 2-16 2-10v-5l-3 1-10 19-4 17-2 2-6-1-1-5 3-19v-10l-3-4 4-4h7l2 3v8l6-12 5-4h6l3 4 1 6 7-13z" fill="#54493F"/>
<path transform="translate(321,832)" d="m0 0 9 1 3 3v2l3-2 7 1 1 4-11 13-5 8-1 6h6l-1 5-4 2h-6l-4-4-1-6-6 4-7 1-5-3-3-5 1-9 4-8 7-7 9-5z" fill="#56493F"/>
<path transform="translate(715,843)" d="m0 0h10l5 4 3 9-1 11-5 10-5 5-4 3-3 1h-8l-5-3-3-5-1-10 2-9 6-10 6-5z" fill="#56493F"/>
<path transform="translate(486,702)" d="m0 0 2 2v18l-3 12-5 10-9 8-7 3h-7l-5-3-2-4v-7l5-10 4-5 10-7 8-5 6-7z" fill="#FDFDFD"/>
<path transform="translate(561,830)" d="m0 0 5 1 2 2-1 11-7 23-2 7 11-7 3-7h-2l1-4h8l3 3-1 8-8 7-9 3 3 7 5 5h7l-1 5-3 3h-9l-5-4-5-10-2 3-5 10-2 2-5-1-1-5 9-22 7-26 3-13z" fill="#54493F"/>
<path transform="translate(417,596)" d="m0 0h6l3 3 1 3v10l-4 20-8 22-7 16-2-1-2-11v-28l4-20 4-9z" fill="#FDFDFD"/>
<path transform="translate(425,850)" d="m0 0h8l5 3 2 4-1 9-4 5-9 4-13 1 2 7h9l7-3 2 4-2 4-9 3-11-1-6-5-1-2v-11l6-12 10-8z" fill="#584A3E"/>
<path transform="translate(602,855)" d="m0 0h10l4 4 1 2v8l-4 6-8 5-7 2h-5l3 7h7l9-5 1 1v6l-5 4-8 2-9-1-6-5-1-3v-12l6-12 8-7z" fill="#55493F"/>
<path transform="translate(818,815)" d="m0 0h9l4 5 1 2v8l-4 7-8 7-4 2 2 5h6l5-5 3-4 4 2v5l-5 6-8 4h-9l-6-4-3-7-1-8 2-11 6-10z" fill="#55493F"/>
<path transform="translate(283,799)" d="m0 0h8l24 12 8 1-1 4-4 3-7-1-6-2-10 12-8 10-10 11-8 5-8 1-2-2v-3l8-4 8-8 10-13 9-11 3-4-5-1h-7l-3 1v2l-5-1-1-5 3-5z" fill="#534940"/>
<path transform="translate(933,669)" d="m0 0 7 2 3 4 1 3v10l-3 10-6 9-1 1h-19v-12l7-16 7-9z" fill="#FDFDFD"/>
<path transform="translate(341,613)" d="m0 0h9l6 4 2 4v13l-3 6-6 5-5 2-8-1-5-4-2-7 1-11 4-6 4-4z" fill="#E26B04"/>
<path transform="translate(456,853)" d="m0 0h10l6 3 2 3-1 7-2 2h-5l-1-1-1-7-5-1-2 1v6l7 14-1 7-5 5-5 2-10-1-5-5 1-6 3-2 4 1 2 6h5l1-3-7-14v-9l5-6z" fill="#574A3E"/>
<path transform="translate(361,840)" d="m0 0 9 2 5 4 1 6-4 5-5-1-1-3v-5l-1-1h-5l-2 5 5 12v9l-4 5-5 2h-9l-6-4-2-5 3-5h5l2 7 4 1 2-1-1-7-4-10 1-9 7-6z" fill="#574A3E"/>
<path transform="translate(398,836)" d="m0 0 6 1-1 7-2 3 9 2-1 4-2 1-11 1-8 16-2 8 12-2-1 5-5 4h-11l-4-5 1-10 8-19-3-1 1-4 7-2z" fill="#55493F"/>
<path transform="translate(516,830)" d="m0 0h5l3 3-1 9-10 28-5 15v4h6l-1 5-4 3h-6l-4-3-1-8 15-45 2-10z" fill="#54493F"/>
<path transform="translate(929,594)" d="m0 0 4 1 2 6-3 12-10 23-6 12h-1v-14l3-21 4-11 4-6z" fill="#FDFDFD"/>
<path transform="translate(530,856)" d="m0 0h7l2 1v7l-8 19-2 7 6-1v5l-3 3-6 1-5-3-1-2 1-9 7-17v-5l-1-4z" fill="#56493F"/>
<path transform="translate(717,848)" d="m0 0 5 1 1 3v11l-4 12-4 5-5 1-2-4v-11l3-10 4-6z" fill="#FDFDFD"/>
<path transform="translate(322,838)" d="m0 0 7 1v6l-7 9-7 7-6 3-4-2 2-9 5-8 8-6z" fill="#FDFDFD"/>
<path transform="translate(605,860)" d="m0 0 4 2-1 6-6 7-4 2-4-1 4-10 5-5z" fill="#FDFDFD"/>
<path transform="translate(426,856)" d="m0 0h5l1 4-3 5-5 4-5 2h-4l2-5 6-8z" fill="#FDFDFD"/>
<path transform="translate(819,821)" d="m0 0 4 1 1 6-3 8-5 5h-2v-12l3-7z" fill="#FDFDFD"/>
<path transform="translate(537,837)" d="m0 0 7 1 1 7-4 4h-6l-2-2v-7z" fill="#55493F"/>
<path transform="translate(1009,657)" d="m0 0 4 2v5h-3l-2-2z" fill="#FDFDFD"/>
</svg>
