<?xml version="1.0" encoding="UTF-8"?>
<svg version="1.1" viewBox="0 0 2048 1480" width="1280" height="1280" xmlns="http://www.w3.org/2000/svg">
<path transform="translate(0)" d="m0 0h2048v1480h-2048z" fill="#D2E4EA"/>
<path transform="translate(586,244)" d="m0 0h265l17 2 21 5 18 8 13 8 11 9 13 13 10 13 10 15 6 14 4 13 3 25v254l-3 32-5 20-5 12-6 11-8 10-9 10-12 11-15 10-5 3-21 7-3 2-13 2-12 1-1 1-16 1h-239l-26-2-18-4-19-7-12-7-16-12-13-12-11-15-8-15-5-13-4-18v-288l1-18 7-20 8-16 10-15 3-4h2l2-4 13-13h2l1-3 15-11 10-6 11-4 11-3z" fill="#007F7C"/>
<path transform="translate(1214,260)" d="m0 0h394l24 1 6 3 4 6 1 4 1 25 1 180v31l-1 199-2 11-5 4-7 2h-126l-3-3v-124l1-7 7-2h48l6-1 3-17 5-27 4-30v-8l-66 1-5-2-2-2-1-5v-23l1-23 1-11 4-7 9-4 15-1h46v-84l-1-13-7-1h-70l-19 1-16 3-10 5-10 8-11 11-7 10-6 12-2 8-1 14v100l-3 3h-65l1 81 16 1 40 1 9 2 2 2v128l-1 4-2 1h-71l-130-1-4-4-2-14v-399l1-44 2-4z" fill="#D2E4EA"/>
<path transform="translate(1509,883)" d="m0 0 25 4 16 6 11 7 15 13 17 17 5 4 8 3 13-2 14-6 11-7h2v-2l10-7 8-1 3 6v29l-4 19-7 20-8 16-11 16-4 8v38l-2 40-1 9-2 10-3 17-6 27-8 27-11 26-11 20-7 10-8 11-9 11-24 24-14 11-23 15-14 8-15 6-11 3-4 2-23 4-12 1-4 2-14 1h-19l-27-2-8-1v-2l-11-1-27-6-23-6-18-6-18-7-9-4-21-10-9-5-21-12-5-3-5-2-8-7-3-7 1-5 3-2 6 1v2l7 2h19l19-2 31-6 5-2h6v-2l19-7 18-8 9-5-1-4-13-9-10-7-19-13-4-3v-2l-5-2v-2l-4-2-9-7v-2l-3-1-5-6-11-14-10-15-9-20-5-14-8-33-2-22v-32l1-12 1-3 1-11 1-2 1-19 5-29 3-8 4-8 2-1 10 10 10 14 16 22 9 11 9 10 7 8 16 14 18 12 19 9 12 4 18 2h15l26-4 3-1 4-6 1-9 1-25 3-19 1-3 1-13 3-11 3-10 10-19 10-13 10-10 13-9 15-7z" fill="#007E7B"/>
<path transform="translate(1316,240)" d="m0 0h278l31 1 14 2 9 5 6 7 5 11 2 13 1 23v370l-1 37-3 15-5 8-4 5-10 5-4 1-32 2h-309l-57-1-17-1-14-3-8-6-4-6-2-8-2-25-1-69v-242l1-104 1-22 1-7 7-6 14-3 12-1zm-102 20-5 2-1 3-1 50v393l2 14 4 4 130 1h71l2-1 1-4v-128l-4-3-7-1-40-1-16-1-1-81h65l3-3v-100l1-14 4-13 8-13 11-12 10-9 10-6 12-3 7-1 19-1h70l7 1 1 13v84h-46l-15 1-9 4-4 7-1 11-1 23v23l2 6 2 2 9 1 61-1-1 16-4 26-6 37-1 3-6 1h-50l-5 2-1 7v124l3 3h126l9-3 3-3 2-11 1-199v-31l-1-180-1-25-3-8-5-4-3-1-24-1z" fill="#007F7C"/>
<path transform="translate(882,994)" d="m0 0h36l18 3 15 4 12 5 13 7 16 11 13 12 8 8 14 19 10 17 7 18 3 18v191l-1 15-6 5h-66l-23-2-5-2-3-4-1-3-1-168-1-16-3-13-6-10-8-7-5-4-6-3-7-1h-16l-16 8-5 5-5 8-4 13-1 9-1 179-1 7-4 3-3 1h-72l-17-2-6-3-2-2v-191l1-16 4-17 5-13 10-18h2l2-5 10-12 1-2h2l2-4 14-13 14-11 19-11 20-8 9-2z" fill="#007E7B"/>
<path transform="translate(586,244)" d="m0 0h265l17 2 21 5 18 8 13 8 11 9 13 13 10 13 10 15 6 14 4 13 3 25v254l-3 32-5 20-5 12-6 11-8 10-9 10-12 11-15 10-5 3-21 7-3 2-13 2-12 1-1 1-16 1h-239l-26-2-18-4-19-7-12-7-16-12-13-12-11-15-8-15-5-13-4-18v-288l1-18 7-20 8-16 10-15 3-4h2l2-4 13-13h2l1-3 15-11 10-6 11-4 11-3zm48 42-39 1-21 3-12 4-13 7-5 4v2l-4 1-9 9-11 15-8 17-2 8-1 13v20l1 65 1 182 2 14 3 10 8 14 6 9 10 10 5 2v2l5 3 8 5h4v2l12 3 28 2h263l11-2v-2l9-1v-2l8-1 4-2v-2l5-2 4-2 5-5 10-12 8-16 5-13 2-14v-62l-1-206-2-16-5-16-4-8-5-5-5-8-5-5-4-2-3-4-4-1-4-4-8-3h-3v-2l-16-5-14-2-38-1h-65l-90-1z" fill="#000405"/>
<path transform="translate(707,379)" d="m0 0h32l19 4 14 5 10 5 12 7 11 8 8 7 9 11 10 15 7 15 5 15 3 16v27l-4 20-3 8-5 13-2 5h-2l-2 5-7 11-12 13-7 7-13 10-19 10-7 3-21 4-10 1h-26l-21-4-16-6-14-7-11-8-12-11-3-4v-2h-2l-6-9-8-14-7-15-5-15-2-12v-28l5-25 6-16 6-11 8-12 11-13 14-11 16-10 14-6 14-4z" fill="#FCFDFD"/>
<path transform="translate(549,994)" d="m0 0h117l2 6v313l-2 11-1 2-4 1h-88l-16-2-8-3-2-5v-263l1-59z" fill="#007E7B"/>
<path transform="translate(1316,240)" d="m0 0h278l31 1 14 2 9 5 6 7 5 11 2 13 1 23v370l-1 37-3 15-5 8-4 5-10 5-4 1-32 2h-309l-57-1-17-1-14-3-8-6-4-6-2-8-2-25-1-69v-242l1-104 1-22 1-7 7-6 14-3 12-1zm-102 20-5 2-1 3-1 50v393l2 14 4 4 130 1h71l2-1 1-4v-128l-4-3-7-1-40-1-16-1-1-81h65l3-3v-100l1-14v2l-1 115-31 1h-35v65l1 14 1 1 16 1 38 1 9 2 2 3v72l-1 58-2 7 3 3 25 4 23 1 17-1 10-3 6-4 2-5-2-7v-88l1-4 1-29v124l3 3h126l9-3 3-3 2-11 1-199v-31l-1-180-1-25-3-8-5-4-3-1-24-1z" fill="#098E95"/>
<path transform="translate(1509,883)" d="m0 0 25 4 16 6 11 7 15 13 17 17 5 4 8 3 13-2 14-6 11-7h2v-2l10-7 8-1 3 6v29l-4 19-7 20-8 16-11 16-4 8v38l-2 40-1 9-2 10-3 17-6 27-8 27-11 26-11 20-7 10-8 11-9 11-24 24-14 11-23 15-14 8-15 6-11 3-4 2-23 4-12 1-4 2-14 1h-19l-27-2-8-1v-2l-11-1-27-6-23-6-18-6-18-7-9-4-21-10-9-5-21-12-5-3-5-2-8-7-3-7 1-5 3-2 6 1v2l7 2h19l19-2 31-6 5-2h6v-2l19-7 18-8 9-5-1-4-13-9-10-7-19-13-4-3v-2l-5-2v-2l-4-2-9-7v-2l-3-1-5-6-11-14-10-15-9-20-5-14-8-33-2-22v-32l1-12 1-3 1-11 1-2 1-19 5-29 3-8 4-8 2-1 10 10 10 14 16 22 9 11 9 10 7 8 16 14 18 12 19 9 12 4 18 2h15l26-4 3-1 4-6 1-9 1-25 3-19 1-3 1-13 3-11 3-10 10-19 10-13 10-10 13-9 15-7zm-9 18-14 3-15 6-9 6-12 12-6 9-4 10-3 7-5 17-2 14-1 14v34l-2 11-3 5-11 5-22 6-8 1h-31l-17-4-6-3-7-1v-2l-10-5-6-1-1-3-9-4-5-5-6-5-7-3-15-14-6-5-5-7h-2l-2-4-8-9-3-7-5-7h-6l-3 3-3 15-2 22v60l3 23 5 16h2l1 5 3 10 2 4h2l2 5 8 15 3 4h2l1 4 5 5 16 15 2 3 5 3 9 7 5 5 7 4h2v2l7 4 18 10 13 8 6 6-2 4-6 4v2l-4 1-4 4-16 8-31 11-25 8-24 6-8 4 1 4 19 10 4 1v2l17 7h6v2l11 3h4v2l21 7 15 3 23 5 28 4 10 2h21l12-2 18-2 17-4 16-5 15-6 17-9 17-12 16-13 18-18 10-13 12-19 9-16 5-11 8-20 6-23 6-24 3-22 2-27 1-54 2-10 8-16 4-6v-2h2l8-14 6-17 2-13-1-11-3-3h-5l-10 5-13 4h-20l-7-3-5-2-2-4-9-10h-2l-2-4-11-10h-2v-2l-15-10-4-1v-2l-12-2z" fill="#010708"/>
<path transform="translate(882,994)" d="m0 0h36l18 3 15 4 12 5 13 7 16 11 13 12 8 8 14 19 10 17 7 18 3 18v191l-1 15-6 5h-66l-23-2-5-2-3-4-1-3-1-168-1-16-3-13-6-10-8-7-5-4-6-3-7-1h-16l-16 8-5 5-5 8-4 13-1 9-1 179-1 7-4 3-3 1h-72l-17-2-6-3-2-2v-191l1-16 4-17 5-13 10-18h2l2-5 10-12 1-2h2l2-4 14-13 14-11 19-11 20-8 9-2zm12 15-25 3-17 5-20 9-7 5v2l-5 2-13 12-11 11-10 14-9 16-4 11-3 10-1 8-1 23v158l1 12h68l3-1v-143l2-37 5-19 7-13 9-10 16-8 8-2h24l13 4h2v2l10 6 5 5 3 5 5 8 3 6 2 11 1 1 2 15 1 16v142l1 11h73l-1-40-1-129-2-29-2-10-5-16-10-17-8-10-9-11-5-5-5-6-5-2-5-5-5-3-10-4-6-3h-2v-2l-7-1v-2l-14-3-20-2z" fill="#000607"/>
<path transform="translate(717,418)" d="m0 0h16l16 4 12 5 15 10 10 10 7 9 7 13 4 12 2 15v13l-2 13-5 15-7 12-11 13-13 10-16 8-12 4-14 2h-8l-16-3-15-6-14-10-10-9-10-13-8-15-4-16v-27l4-15 5-11 7-11 12-12 6-4 7-5 5-2 3-3 9-3z" fill="#007F7C"/>
<path transform="translate(549,994)" d="m0 0h117l2 6v313l-2 11-1 2-4 1h-88l-16-2-8-3-2-5v-263l1-59zm39 16-20 2-1 1-1 17v61l1 214 1 3 5 1h75l2-1v-158l1-138-3-1-25-1z" fill="#010809"/>
<path transform="translate(598,817)" d="m0 0h24l13 5 11 8 9 9 7 10 4 9 2 12v16l-3 10-6 11-11 12-12 9-12 5-7 2h-18l-13-4-13-8-8-7-9-12-5-12-2-7v-17l5-15 6-10 8-10 11-9 11-5z" fill="#007E7B"/>
<path transform="translate(1201,1038)" d="m0 0h7l3 3 3 17 1 6 1 19 5 8 5 17v3h2l3 7 3 12h2l8 14 5 9 2 1 1 3 5 4 6 7 8 7 4 5 5 3 10 8 4 4 9 5v2l4 1 21 12 13 8 7 7-2 4-5 4h-2v2l-3 1-5 5-16 8-31 11-25 8-24 6-7 3 1 4 22 11v2l10 3 7 3 6 1v2l11 2 4 1v2l9 2 12 4 15 3 4 1v2l8 1 43 8 8 1h23l27-4 16-2 10-4h18l2 2 5 1 1-5 9-6 11-6 1-2 7-1h3v-3l6-3 5-4 5-1-2 4-14 10-17 11-14 8-15 6-11 3-4 2-23 4-12 1-4 2-14 1h-19l-27-2-8-1v-2l-11-1-27-6-23-6-18-6-18-7-9-4-21-10-9-5-21-12-5-3-5-2-8-7-3-7 1-5 3-2 6 1v2l7 2h19l19-2 31-6 5-2h6v-2l19-7 18-8 9-5-1-4-13-9-10-7-19-13-4-3v-2l-5-2v-2l-4-2-9-7v-2l-3-1-5-6-11-14-10-15-9-20-5-14-8-33z" fill="#000708"/>
<path transform="translate(0,298)" d="m0 0 4 1 2 2 1 8 1 72 1 388v290l1 231v190h-10z" fill="#EAF7FA"/>
<path transform="translate(1540,906)" d="m0 0h4v2l5 2 11 8 10 9 9 10 7 8 10 3 12-2v-2l6-1 9-1 12-4 8-2 6-5 6-3 9 1 1-7 2-4v29l-4 19-7 20-8 16-11 16-4 8v38l-2 40-1 9-2 10-3 17-6 27-8 27-11 26-11 20-7 10-8 11-9 11-24 24-4 2-7 2-6 5h-3v3l-7 1h-3l-1 3-18 10-3 6h-5l-2-2h-18l-10 4-16 2-27 4h-23l-36-6-23-5v-1l9 1 23 4 15 2 10 2h21l12-2 18-2 17-4 16-5 15-6 17-9 17-12 16-13 17-17 10-13 12-19 9-16 5-11 8-20 6-23 6-24 3-22 2-27 1-54 2-10 8-16 5-8h2l2-5 7-14 4-12 2-13-1-11-2-2h-5l-10 5-13 4h-20l-7-3-5-3-9-11-5-5-12-11-2-1v-2l-4-2-11-7z" fill="#041314"/>
<path transform="translate(887,1076)" d="m0 0h24l13 4 2 1v2l5 2 6 4 5 5 3 5 5 8 3 6 2 11 1 1 2 15 1 16v153l74 1-1-36v-61l2-1 1 17v21l2 18-1 7 1 3h1l1-6 5-1 1 2v50l-5 4h-66l-23-2-5-2-3-4-1-3-1-168-1-16-3-13-6-10-8-7-5-4-6-3-7-1-19-1 2-1 1-3 12-4 4-2-16-3-2-1z" fill="#000405"/>
<path transform="translate(1500,901)" d="m0 0h24l12 2v2l6 2 13 9v2l4 2 11 10v2l4 2 9 10v2l5 2 7 3h20l16-5 7-4h5l3 3 1 11-3 16-6 16-7 12h-2l-2 5-4 6-6 13-2 10-1 54-3 36-4 22-6 23-5 18-5 13-7 15-10 18-14 21-11 13-17 17-13 10-19 13-17 9-18 7-22 6-12 2-24 3h-21l-25-4-23-4v-1h14l39 6 19-1 13-2 13-3 27-9 16-8 15-9 12-9h2v-2l8-7 33-33 8-11 14-20 10-15 4-11 7-18 3-5 4-17 4-14 1-8 3-7 3-19 1-53 2-29 1-8 8-21 2-8 3-5 3-7-1-13-11-1h-9l-10-1-19-9v-2l-3-1v-2l-4-2-7-6-7-8-2-1v-2h-2l-6-7v-2h-2v-2l-9-3-12-2-16 1-25 5-11 6-9 7h-2l-1 3-5 5-7 11-9 23-3 11-3 25-1 33-3 7-5 5-2-1 4-8 1-8v-34l2-22 3-14 5-15 7-14 7-9 11-11 16-8 13-4z" fill="#006D6E"/>
<path transform="translate(598,817)" d="m0 0h24l13 5 11 8 9 9 7 10 4 9 2 12v16l-3 10-6 11-11 12-12 9-12 5-7 2h-18l-13-4-13-8-8-7-9-12-5-12-2-7v-17l5-15 6-10 8-10 11-9 11-5zm1 16-9 4-11 7-8 9-6 14v14l2 9 1 2h2l2 7 5 5 5 6h3v2l7 4 10 3h13l12-3 12-7 6-7 4-8 2-12v-17l-4-13-8-7-1-2-4-2-2-3-10-4-5-1z" fill="#010708"/>
<path transform="translate(1218,931)" d="m0 0 5 3 7 8 9 13 16 22 9 11 9 10 7 8 16 14 18 12 19 9 12 4 14 3v3l-7 8-21-3-9-3v-2l-6-2-10-4-3-3-7-3-5-5-6-5-7-3-15-14-7-6-4-5v-2h-2l-7-8-4-5-3-7-4-6h-6l-3 5-3 21-1 13v60l2 14v5l-3-3-3-5-1-19-3-20-3-5-7-1 1 11v21h-1l-1-14v-32l1-12 1-3 1-11 1-2 1-19 5-29 3-8 4-8z" fill="#000506"/>
<path transform="translate(1201,1038)" d="m0 0h7l3 3 3 17 1 6 1 19 5 8 5 17v3h2l3 7 3 12h2l8 14 5 9 2 1 1 3 5 4 6 7 8 7 4 5 5 3 10 8 4 4 9 5v2l4 1 21 12 13 8 7 7-2 4-5 4h-2v2l-9 3-7 2-3 1h-11l-3-2h2v-3l5-4 5-3-1-4-13-9-10-7-19-13-4-3v-2l-5-2v-2l-4-2-9-7v-2l-3-1-5-6-11-14-10-15-9-20-5-14-8-33z" fill="#000607"/>
<path transform="translate(634,286)" d="m0 0h26l90 1h73l30 1 18 3 6 2v1h-8l-21-2h-35l-26 1-16 1h-19l-24 1h-17l-38 1h-48l-25-2-11-2-14 2-8 4-15 9-3 1v2l-6 5-6 3-6 7-1 3-4 4-4 11-3 12-2 16v25l1 28v33l-1 33v57l-1 8v54l-1 7-1 10v25h-1l-2-14-1-182-1-65v-20l2-18 5-12 6-11 11-14 8-8h3l1-3 11-7 11-5 13-3 15-2z" fill="#006A6B"/>
<path transform="translate(894,1009)" d="m0 0h16l20 2 14 3v2l7 1v2l4 2-11-2-7-2-17-2-7-1-12 1-7 2-12 3-17 6-16 7h-2v2l-9 4-8 4-2 2h-3v2l-8 7-7 6h-2l-2 4-6 6-4 6-4 5-6 11-4 9-2 10-3 11-1 11 1 26v51l2 30v22l-2 10-2 2-2 5-2 3-1 14 1 3v-2l8-2 3 5-1 7 2 1 54 1v1h-68l-1-12v-158l1-23 2-12 5-15 8-15 10-14 9-10 12-12 8-6h2l1-3 12-7 20-8 17-4z" fill="#006C6D"/>
<path transform="translate(545,997)" d="m0 0 2 1 1 319 1 4 8 3 15 3v2l-2 1h-13l-7-3h-5l-2-3-2-8-4-28-1-44-2-25-1-27v-55l1-33v-23l1-4 1-18 1-10 2-30 4-21z" fill="#E7F5F8"/>
<path transform="translate(957,1022)" d="m0 0 6 2 9 4 6 4 2 3 5 2 7 9 5 5 9 10 10 15 6 12 5 16 2 18 1 18 1 129 1 40h-73l-1-11v-142l-2-24-1-7-2-5v-3h2l1 4 3-1v2l4 1 4 11 3 21 1 28 1 43 1 15v20l-1 24 2 9 2 11 14 2h28l4-9 6-17v-117l-2-35-4-20-3-10-5-12-5-10-6-9-6-5v-2h-2l-3-5-6-5v-2l-4-2v-2l-4-2-7-6-4-7-10-7z" fill="#006D6E"/>
<path transform="translate(994,1047)" d="m0 0 7 6 4 5 9 4 10 13 7 11 9 20 4 3v-7h1l2 14v191l-1 15h-1l-1-51h-2l-1 2-2-1v6h-3l-1-3 1-8-2-21v-22l-1-11v97h-68v-1h67l-1-3-1-37-1-129-2-29-2-10-5-16-10-17-8-10-8-9z" fill="#04191A"/>
<path transform="translate(800,473)" d="m0 0 3 4 3 19v13l-2 13-5 15-7 12-11 13-13 10-16 8-12 4-14 2h-8l-16-3-15-6-7-5-7-9 1-2 7 1 21 7h11l9 2h21l15-4 8-6 8-11 10-16 4-8 2-11 3-6 2-14 1-2 3-8z" fill="#078E94"/>
<path transform="translate(882,1077)" d="m0 0h5v2l18 3 1 2-7 3-10 3v3l-3 2-13 7-5 5-5 8-4 13-1 9-1 179h-1l-1-69-1-41-4-10-1-47-2-6h-3l-1 8-1 24-1 7-1 92h-1v-108l2-37 5-19 7-13 9-10 10-6z" fill="#041A1B"/>
<path transform="translate(1213,940)" d="m0 0 2 3 1 2 1 9 5 6v2l3 1v2l4 2 9 10 10 14 10 12 25 25-5-2-15-14-7-6-4-5v-2h-2l-7-8-4-5-3-7-4-6h-6l-3 5-3 21-1 13v60l2 14v5l-3-3-3-5-1-19-3-20-3-5-7-1 1 11v21h-1l-1-14v-32l1-12 1-3 1-11 1-2 1-19 5-29z" fill="#051A1C"/>
<path transform="translate(858,336)" d="m0 0h12l10 5v2l4 2 4 5 1 3v14l-5 9-16 10-11-2-9-7-6-8-3-5-1-7 3-9 5-6z" fill="#FAFCFD"/>
<path transform="translate(1623,1156)" d="m0 0h1v8l-2 9-3 13-6 24-8 16-3 7h-2l-1 5-7 11-4 6-4 4-2 4h-2l-2 5-7 9-5 5h-2l-2 4-14 14h-2v2h-2l-1 3-17 13-16 11-10 6-10 4-9 3-16 4h-7v-3l21-10 15-6 18-11 19-13 14-12 22-22 10-13 14-21 10-19 11-28 7-24 2-6z" fill="#E1F1F5"/>
<path transform="translate(1194,345)" d="m0 0h2l1 46v216l1 48v49l3 15 2 5 4 2 1 3 2 1-2 8h-5l-5-4-4-6-1-13-1-36-1-159v-36l1-64 1-47 1-15v-4z" fill="#007F7C"/>
<path transform="translate(1208,262)" d="m0 0 1 3-1 50v393l2 14 3 3 130 1h73v-132l-3-2-7-1-40-1-14-1-2-1-1-3v-78l65-1 2-2v-100l1-14 2-8 1 4-1 6-1 113-3 3-29 1h-31l-4-1 1 48v17l1 14 16 1 38 1 9 2 3 4v72l-1 58-2 3-4 1h-188l-11-1-5-4-2-11-1-7v-82l1-262v-64l1-34z" fill="#3AA0A7"/>
<path transform="translate(634,286)" d="m0 0h26l90 1h73l30 1 18 3 6 2v1h-8l-21-2h-35l-26 1-16 1h-19l-24 1h-17l-38 1h-48l-25-2-11-2-14 1 1-2 4-2 15-2z" fill="#026263"/>
<path transform="translate(889,1093)" d="m0 0h16l9 2 6 4 8 6 7 8 2 4v12l-6 2-2-1v-2l-4 2-12-5-7-4-4-1h-12l-16 4-5 4h-3l-2-17 6-8 10-6z" fill="#E6F5F8"/>
<path transform="translate(1649,324)" d="m0 0 2 4 2 18v172l1 35-1 107-1 29-2 15-2 1-1-4 1-376z" fill="#007F7C"/>
<path transform="translate(1226,972)" d="m0 0h6l7 10 2 5 9 10v2h2l7 9 8 7 11 10 8 4 9 7 4 4 7 3v2l2 1-6-1-5-2-4-4-10-6-9-4v-2l-4-2-7-4-7-6-5-3v-2l-6-2-7-2-4 4h-2l-3 11-2 15-2 20-3 17-1 13h-1l-2-14v-60l3-29 3-9z" fill="#006D6E"/>
<path transform="translate(1642,270)" d="m0 0 2 2 1 5 1 23 1 97v188l-1 117-1 13-3 8-4 3-6 2-15 1h-68l-45-1-4-4-1-96 1-31 1-5h1v133h128l9-3 3-5 1-8 1-199v-31l-1-180z" fill="#3AA0A7"/>
<path transform="translate(845,994)" d="m0 0h10l1 3h7l8-1-4 2-9 2-10 4-11 5-18 10-11 9-10 9-8 7-2 2-1-1-7 8-6 9h-2v2h-2l-2 4-8 10-2 4-1-2 4-10 2-4v-8l4-7 2-7 5-5 9-10h2v-2h2l1-3 11-9 10-7 15-8 9-3z" fill="#97C7CC"/>
<path transform="translate(908,743)" d="m0 0 1 4-12 6-14 4-9 2-15 1-10 2-31 2-51 1h-68l-28-2-4-4 24-1 101-1 51-2 16-1 1-1 18-2 9-2 12-5z" fill="#E5F4F7"/>
<path transform="translate(1640,268)" d="m0 0 2 2 1 4 1 25 1 180v31l-1 199-2 11-5 4-7 2h-126l-3-3v-124l1-7 7-2h48l6-1 2-9h1v9l-3 3-58 1-1 1-1 13v25l1 91 9 1 118-1 8-3 2-9v-407z" fill="#98C8CD"/>
<path transform="translate(472,351)" d="m0 0h1l-1 297h-1l-2-9-2-26v-228l1-18 2-10h2z" fill="#7DBBC0"/>
<path transform="translate(1444,935)" d="m0 0 1 2-4 10-3 7-5 17-2 14-1 14v34l-2 11-4 6-11 5-22 6-8 1h-31l-17-4-3-2 20 2 7-8v-1l-5-1v-1h30v3l7 1 12-2 11-3 3-9 3-8h2l2-5 1-2v-28l2-18 4-15 5-15 5-8h2z" fill="#031516"/>
<path transform="translate(821,1032)" d="m0 0 4 1-11 8-17 17-10 14-9 16-4 11-3 10-1 8-1 23v168h-1l-1-6-1-88-2-67-4-15-1-11 6-26 7-16 7-10 4-7 4-5 4-8h2l1-3 6-4 9-7 7-2z" fill="#041B1C"/>
<path transform="translate(567,1013)" d="m0 0 2 4 3 3v102l-1 2v12l1 4v89l1 12v15l-2 16-2 5-1 28h-1l-1-214v-61z" fill="#006D6E"/>
<path transform="translate(550,858)" d="m0 0h1l-1 10v17l5 15 7 11 5 6 9 7 12 7 11 3h18l15-5 11-7 10-9 8-11 4-8 3-9 1 3 3 1 1 3v7l-5 11-9 2h-2l-2 5-3 1-1 3-7 6-5 5h-2l-1 3-9 4-6 2-10 3h-16l-10-2-8-6-3-5-1-3-2-1v-2l-5-2v-2h-2l-4-4-3-1v-2h-3l-5-8-5-16-1-7v-8l3-10h2l1-6z" fill="#E3F2F6"/>
<path transform="translate(1646,938)" d="m0 0 5 1 2 9-5 20-8 20-6 12h-2l-2 4-10 17-2 8v42l-2 33-3 26-6 35-16 44-8 15-14 20-12 16-4 3 2-4 9-12 13-21 10-19 9-23 6-23 6-24 3-22 2-27 1-54 2-10 8-16 5-8h2l2-5 7-14 4-12 2-13-1-11-2-2h-5l-10 5-13 4h-20l-7-3 2-1 6 2 13-1 14-4 9-2z" fill="#093C3D"/>
<path transform="translate(1328,243)" d="m0 0h228v2l-7 2-15 1h-164l-15-1-11 1-16-1h-10l-9-1-4 1-11-2v-1z" fill="#007F7C"/>
<path transform="translate(894,701)" d="m0 0h3v2l-8 3h-4v2l-9 1v2l-11 2h-263l-28-2-6-1v-1h277l18-1 21-3z" fill="#045556"/>
<path transform="translate(1499,331)" d="m0 0h70l7 1 1 1 1 13v27l-1 57-46 1-15 1-8 2 1-2 6-2h6v-2l26-2 11-3 3-1 9-1 3-3v-65l-4-10v-2l-11-3-11-2-14-1-60-1v-1l7-1z" fill="#17939A"/>
<path transform="translate(1348,1230)" d="m0 0m-1 2m-1 1v3l-11 9-8 6-25 11-12 4-11 9-14 6-5 2 1 5 3 4-1 6-1 2 2 1v2l-5-1-8-3v-2l-6-2-17-9-1-4 8-4 28-7 47-16 14-6 10-6 2-3h3v-2z" fill="#006D6E"/>
<path transform="translate(1207,382)" d="m0 0h1l1 225v96l2 17 1 3 11 1h191l1-88 1-42h1v128l-1 4-2 1h-71l-130-1-4-4-2-14z" fill="#98C8CD"/>
<path transform="translate(1471,886)" d="m0 0h5l1 3 2 1-17 9-11 9-8 8-9 13-10 19-5 19-1 13-3 13-1 9-1 25-1 9h-1v-15l2-31 2-18 5-19-1-7-1-5 4-14 6-10 4-7h2l2-4 4-5 11-8 12-5z" fill="#91C4C9"/>
<path transform="translate(647,854)" d="m0 0h2l4 11v4h2l3 9 1 1 1 13-3 9-4 8-13 9h-2v2h-3l-1 3-7 5-10 2-15-2-11-4-2-4 5-2v-2l8 2h13l12-3 12-7 6-8 3-6 2-12v-17z" fill="#031112"/>
<path transform="translate(924,331)" d="m0 0 3 4 4 10 3 13 1 11 1 206v62l-2 14-2 4v-87l-1-204-3-16-4-12z" fill="#045758"/>
<path transform="translate(1316,240)" d="m0 0h278l31 1v1l-283 1h-116l-18 1v-1l17-2z" fill="#3AA0A7"/>
<path transform="translate(1303,238)" d="m0 0h238l72 1 19 2v1l-38-1h-278l-102 1v-1l9-1 26-1z" fill="#98C8CD"/>
<path transform="translate(1236,950)" d="m0 0 5 2 2 5 3 1 8 11 5 6 4 6 21 21 10 5 3 2v2l4 2 5 4 5 3 3 3v3l4 1 17 11v2l2 1h-7l-21-11-14-10-10-9-8-7-7-8-10-11-18-24-4-6z" fill="#DEF0F4"/>
<path transform="translate(546,1056)" d="m0 0h1v130l-1 106h-1l-2-14-1-17v-82l1-32 1-17z" fill="#FDFEFE"/>
<path transform="translate(1661,281)" d="m0 0h1l1 19 1 165-1 223-1 19h-1z" fill="#98C8CD"/>
<path transform="translate(1309,1239)" d="m0 0 2 1-3 1 1 4h11l4-2 11-1-4 4-16 8-31 11-25 8-24 6-7 3 1 4 22 11-3 1-23-11-5-4 1-3 21-6 14-3 1-3 27-7 13-5 7-3v-2l-5-2-9 1-14 5-4-1 19-7z" fill="#041718"/>
<path transform="translate(1223,964)" d="m0 0 5 2 7 7 13 18 10 12 25 25-5-2-15-14-7-6-4-5v-2h-2l-7-8-4-5-3-7-4-6h-6l-3 5-3 21-1 13v60l2 14v5l-2-4-5-32v-40l2-25 4-20z" fill="#093C3D"/>
<path transform="translate(1416,390)" d="m0 0h1v114l-3 3h-65l1 81 16 1 40 1 7 1v1h-26l-28-1-10-1-2-2-1-6v-76l2-1 66-1 1-7v-95z" fill="#98C8CD"/>
<path transform="translate(750,1128)" d="m0 0h1v192l-2-3v-12l-2-21-1-24v-34l1-41 2-38z" fill="#EAF7FA"/>
<path transform="translate(635,843)" d="m0 0h3l7 8 2 1 4 13v17l-2 12-6 11-7 6-12 6-3-1 2-1 1-7 9-10 4-2 2-4 3-3 2-10v-12l-2-6v-4h-2l-3-8z" fill="#006D6E"/>
<path transform="translate(992,1317)" d="m0 0h9l28 2 5 2 1 2 8 1-3 3h-66l-16-1v-1h6l2-4 3-1 18-2z" fill="#031516"/>
<path transform="translate(837,357)" d="m0 0 2 3 3 7 6 9 9 7 8 2-3 2 1 2-4 4h-10l-9-2-8-6-3-4-1-5v-8l2-4 7-1z" fill="#098E94"/>
<path transform="translate(1503,439)" d="m0 0 1 3-1 11-1 23v23l2 6 5 2h66l1 2-1 14-4 26-1 6h-1v-9l1-16-1-9-6-2-1-4-2-1v-2l-14-1-38-1-6-4-2-4v-38l2-23z" fill="#1B959B"/>
<path transform="translate(963 1e3)" d="m0 0 6 2 7 3 1 2 7 3 2 4 5 1 11 7 9 9 15 20 10 15 11 20 1 9-2 1v2h-2l-5-15-8-16-8-12-9-12-9-10-8-8-12-9-16-10-6-3z" fill="#DCEFF2"/>
<path transform="translate(962,686)" d="m0 0 2 1-6 11-8 10-9 10-12 11-13 9-4-5 2-1-1-3 3-3h3l1-3 8-7 4-2v-2h3v-2l3-3 3-1 5-5h2l1-4 5-4 4-3h2z" fill="#031415"/>
<path transform="translate(516,340)" d="m0 0 1 3-4 12-1 6v39l1 52v125l-1 60h-1l-1-182-1-65v-20l2-18z" fill="#093C3D"/>
<path transform="translate(1353,1330)" d="m0 0 16 2 19 3h23l27-4 4 1-9 4-6 2-2-1-1 2-9 3-18 1-23-2-14-3-5-5z" fill="#030F10"/>
<path transform="translate(925,267)" d="m0 0 5 2 4 3v2l4 2 11 12 13 18 10 17 6 15 2 11v8l-3 3-3-13-7-21-7-14-13-18-12-13-7-7v-3h-2z" fill="#DFF0F4"/>
<path transform="translate(876,1070)" d="m0 0 7 1 7 2 3 1h9l9 1v1l-24 1-13 4-11 6-7 7-6 10-5 12-3 13h-1l1-13 2-15 7-12 4-4h2l4-8 11-6z" fill="#006E6F"/>
<path transform="translate(1316,1229)" d="m0 0 3 2-1 4-17 9-17 7-9 3h-3v2l-10 2-1 1-37 7h-12v-1l29-5 26-7 5-3h2l1-4 19-5 9-5h2v-2l2-1h7z" fill="#93C5CA"/>
<path transform="translate(682,429)" d="m0 0 2 1-4 5-4 1-1 3h-2l-2 5-4 4h-2l-2 4-6 7-7 15-4 14-2 3-1 20-2 3v-27l4-15 5-11 7-11 12-12 6-4z" fill="#19949B"/>
<path transform="translate(1516,1295)" d="m0 0 2 1-15 11-21 11-15 6-29 8-27 4h-23l-36-6-23-5v-1l9 1 23 4 15 2 10 2h21l12-2 18-2 17-4 16-5 15-6 17-9z" fill="#093C3D"/>
<path transform="translate(1351,508)" d="m0 0 12 1v1h-9l1 14v54l1 5h2l3 3 12 1 29 1v1h-33l-16-1-1-1-1-14z" fill="#048D93"/>
<path transform="translate(994,1047)" d="m0 0 7 6 9 11 11 17 6 14 2 6 2 15v153h-1l-1-129-2-29-2-10-5-16-10-17-8-10-8-9z" fill="#093C3D"/>
<path transform="translate(1196,254)" d="m0 0 4 1v16l-2 10-1 13-1 46h-2l-1-8v-60l1-14z" fill="#007F7C"/>
<path transform="translate(1333,1242)" d="m0 0 2 1-13 8-18 7-41 14-28 7-7 3 1 4 22 11-3 1-23-11-5-4 1-3 21-6 40-11 31-11z" fill="#093C3D"/>
<path transform="translate(1664,962)" d="m0 0 3 1-1 8-5 13-4 13-6 8-2 3h-2l-2 6-8 11-3 1 1-6 7-11 6-9 8-16 7-21z" fill="#DAEDF1"/>
<path transform="translate(591,836)" d="m0 0 3 1-4 9h-2v2l-7 2-2-1-1 7h-2l-1 5-3 5-3 11-1 5 1 10-3-4-1-7v-14l7-15 8-9z" fill="#006A6B"/>
<path transform="translate(955,1125)" d="m0 0h1l2 15 1 16v152l-2-1v-164h-2z" fill="#08393A"/>
<path transform="translate(933,353)" d="m0 0 2 4 2 13 1 32-1 33-1 140h-1l-1-206z" fill="#030F10"/>
<path transform="translate(1564,580)" d="m0 0h1l-1 9-7 2h-50l-5 1v-2l4-2 27-3h18l7 1 6-1z" fill="#1B959B"/>
<path transform="translate(805,1320)" d="m0 0h23l1 2 23 3-3 2h-72v-1h24l2-4z" fill="#041718"/>
<path transform="translate(1421,377)" d="m0 0 2 2-1 15-1 21-1 72-1 18h-1v-113l2-13z" fill="#048D93"/>
<path transform="translate(1535,1297)" d="m0 0h2l-2 4-14 10-17 11-14 8h-2l2-7 9-6 11-6 1-2 7-1h3v-3l6-3 5-4z" fill="#00090A"/>
<path transform="translate(829,564)" d="m0 0 2 4v3h-2l-1 5-4 6-10 10h-2l-1 3h-2l-2 4-3 3-6 2-6 3-4-1 11-8 12-11 10-11z" fill="#0D9096"/>
<path transform="translate(1444,935)" d="m0 0 1 2-4 10-3 7-5 17-2 14-1 14v34l-2 11-4 6-2-1 4-7 1-7v-48l3-17 7-22z" fill="#093C3D"/>
<path transform="translate(956,1143)" d="m0 0h1v139h-1l-1-22-1-49 1-45z" fill="#030F10"/>
<path transform="translate(1650,729)" d="m0 0 3 1-2 5-9 6-3 1h-24l-4-2 12-4 11-1 8-3z" fill="#038280"/>
<path transform="translate(473,666)" d="m0 0h2l4 9 8 16 7 12 9 11-1 2-5-3-5-6v-2l-3-1-6-9-6-10-4-11z" fill="#DDEFF3"/>
<path transform="translate(589,987)" d="m0 0h39l6 2v2l-12 1h-36l-3-2v-2z" fill="#EAF7FA"/>
<path transform="translate(768,1291)" d="m0 0h2l1 8v-2l8-2 3 5-1 7 2 1 54 1v1h-68z" fill="#025D5E"/>
<path transform="translate(1468,909)" d="m0 0h5l-12 9-10 10-5 7-3 1-1-2 4-10 6-8 5-4 9-2z" fill="#041617"/>
<path transform="translate(1623,244)" d="m0 0h18l8 5 1 6-1 1h-8v-2l-7-1-6-4v-2l-5-2z" fill="#02817E"/>
<path transform="translate(1407,594)" d="m0 0h5l2 2v12l-2 6-3 2-5-14-2-4 2-3z" fill="#EAF7FA"/>
<path transform="translate(623,814)" d="m0 0 11 3 3 2 11 6 3 3 1 5-5-1-10-8-12-5-9-3v-1z" fill="#DBEEF2"/>
<path transform="translate(1178,1275)" d="m0 0 8 6 16 8 15 9 8 4-3 1-7-3-8-5-12-4-10-7-7-7z" fill="#79BABF"/>
<path transform="translate(1448,1342)" d="m0 0 4 1-5 2-25 4-10 1h-27l-15-1v-1h37l14-1 4-2 18-2z" fill="#79B6BA"/>
<path transform="translate(933,592)" d="m0 0h2v44l-1 15-2 4v-38z" fill="#006A6B"/>
<path transform="translate(1644 1e3)" d="m0 0h2l-1 5-8 11-3 5h-3l-1-6 4-6z" fill="#000C0C"/>
<path transform="translate(1407,1056)" d="m0 0 3 1-13 5-10 2h-30l-5-1v-1l31-1 16-3z" fill="#006E6F"/>
<path transform="translate(1353,1345)" d="m0 0h22l6 1 40 1v1l-14 1h-19l-27-2-8-1z" fill="#1B6D6F"/>
<path transform="translate(1256,1268)" d="m0 0m-4 1h4v2l-18 5-17 5v2l6 4-3 1-8-6 4-4 20-6z" fill="#030F10"/>
<path transform="translate(1540,906)" d="m0 0h4v2l5 2 11 8 10 9 9 10 7 8 2 3-5-2-9-11-5-5-12-11-2-1v-2l-4-2-11-7z" fill="#083B3C"/>
<path transform="translate(647,854)" d="m0 0h2l5 15v14l-4 13-4 4 2-6 2-12v-17z" fill="#083B3C"/>
<path transform="translate(625,1323)" d="m0 0h9l13 1v2h14v1h-38l-11-1 4-2z" fill="#041718"/>
<path transform="translate(1260,1255)" d="m0 0 6 1-4 2-1 1-37 7h-12v-1l29-5z" fill="#65AFB3"/>
<path transform="translate(566,850)" d="m0 0 3 3v2l2 1-5 11v18l-2-3-1-19-1-1v-7z" fill="#041C1D"/>
<path transform="translate(1221,1086)" d="m0 0 2 2v3h2l2 4 3 15 1 8-3-4v-3h-2l-5-16z" fill="#016465"/>
<path transform="translate(1204,984)" d="m0 0h1v12l-1 2-1 11-1 3-1 12-1 26h-1v-31l2-22 2-5z" fill="#98C8CD"/>
<path transform="translate(1504,899)" d="m0 0h14l15 3-4 1-5-1h-24l-14 3-11 4h-2l1-3 5-1 16-5z" fill="#083A3B"/>
<path transform="translate(1312,1236)" d="m0 0 3 1-19 9-16 6-5 2h-3v2h-6l3-2 29-12z" fill="#1D8F91"/>
<path transform="translate(924,331)" d="m0 0 3 4 2 4 4 23v20h-1l-1-18-3-16-4-12z" fill="#016667"/>
<path transform="translate(881,377)" d="m0 0h2v4h-2v2l-8 4-3 3h-5l1-4z" fill="#16939A"/>
<path transform="translate(1348,1230)" d="m0 0m-1 2m-1 1v3l-11 9-8 6-10 4-2-1 19-11 2-3h3v-2z" fill="#006E6F"/>
<path transform="translate(592,834)" d="m0 0 4 1-8 4-7 4-2-2-5 1 1-3 9-4z" fill="#041617"/>
<path transform="translate(1213,1055)" d="m0 0h2l5 32-1 3-4-7-1-19z" fill="#030F10"/>
<path transform="translate(1337,1342)" d="m0 0 10 1 6 1v2l17 1v1h-16l-15-3-2-1z" fill="#98C8CD"/>
<path transform="translate(1179,1261)" d="m0 0 6 1v2l4 2h-6v2l-6-1-1 4-1-7z" fill="#052324"/>
<path transform="translate(1628,1088)" d="m0 0h1l-1 31-2 7h-1v-11l1-10z" fill="#000708"/>
<path transform="translate(883,297)" d="m0 0 9 2 5 3 1 2 5 2 2 4-5-2-8-4-9-6z" fill="#026061"/>
<path transform="translate(858,1093)" d="m0 0 4 1-1 5-4 5h-5l1-5h2l2-5z" fill="#000203"/>
<path transform="translate(901,740)" d="m0 0h9l-1 2-18 6h-2l2-4z" fill="#051D1E"/>
<path transform="translate(787,1044)" d="m0 0 1 2-7 9-7 10h-2l-1 2-1-3h2v-2h2l2-5 9-10z" fill="#BEDBE1"/>
<path transform="translate(821,1015)" d="m0 0h2v2l-9 6-10 8-3-1 10-9z" fill="#BEDBE1"/>
<path transform="translate(1578,912)" d="m0 0 5 2 9 9-2 2-6-5-4-2-3-3z" fill="#E5F3F7"/>
<path transform="translate(663,849)" d="m0 0h2l2 4-1 2 2 1 1 2v13l-2-1-3-15z" fill="#DBEDF1"/>
<path transform="translate(1195,732)" d="m0 0 6 3 2 2-1 5-5-2-3-3z" fill="#E1F1F5"/>
<path transform="translate(918,1101)" d="m0 0 7 1 3 3v3h-6l-4-4z" fill="#F0F7F8"/>
<path transform="translate(1204,1007)" d="m0 0h1v23l-3 2 1-20z" fill="#000203"/>
<path transform="translate(823,426)" d="m0 0 5 5 8 14-1 4-9-16-3-4z" fill="#0B7A7B"/>
<path transform="translate(955,1125)" d="m0 0h1l2 15v16h-1v-13h-2z" fill="#073132"/>
<path transform="translate(860,332)" d="m0 0h8l1 4-11 1-5 1 3-3z" fill="#149299"/>
<path transform="translate(1204,984)" d="m0 0h1v12l-1 2-1 11-2-1v-11l2-5z" fill="#4C9B9F"/>
<path transform="translate(1509,883)" d="m0 0 15 2v1h-27v-1z" fill="#176C6F"/>
<path transform="translate(817,581)" d="m0 0v3l-5 6-11 9h-3l13-12z" fill="#5EAFB5"/>
<path transform="translate(1204,1292)" d="m0 0 5 1 9 6 7 3-3 1-7-3-8-5-3-1z" fill="#7ABBC0"/>
<path transform="translate(1286,1247)" d="m0 0h3v2l-14 5h-3v2h-6l3-2z" fill="#278F93"/>
<path transform="translate(643,406)" d="m0 0 2 1-17 17v-3l8-9z" fill="#D6E8EC"/>
<path transform="translate(1420,956)" d="m0 0 1 2-5 24h-1v-10l4-15z" fill="#98C8CD"/>
<path transform="translate(1300,1333)" d="m0 0 8 1 11 3v1h-7l-12-3z" fill="#57AAAE"/>
<path transform="translate(1467,1323)" d="m0 0m-4 1 4 1-10 4-6 1h-5l3-2z" fill="#030F10"/>
<path transform="translate(1404,1037)" d="m0 0h3l1 5-12 1 1-2 6-2z" fill="#98C8CD"/>
<path transform="translate(1555,896)" d="m0 0h6l4 3v4l-4-2-6-4z" fill="#CDE7EB"/>
<path transform="translate(894,701)" d="m0 0h3v2l-8 3h-4v2h-3v-2z" fill="#025F60"/>
<path transform="translate(1348,1230)" d="m0 0m-1 2m-1 1v3l-7 6-4-1 4-1v-2z" fill="#025E5F"/>
<path transform="translate(836,1006)" d="m0 0 3 1-8 5-3 2-4-1z" fill="#AED3D9"/>
<path transform="translate(1218,931)" d="m0 0 5 3v2l-8 1 2-5z" fill="#136063"/>
<path transform="translate(1628,926)" d="m0 0 4 2-2 4h-5l1-4z" fill="#DAEDF1"/>
<path transform="translate(1179,1261)" d="m0 0 6 1-4 2-3 1-1 6-2-3 1-5z" fill="#1B7779"/>
<path transform="translate(1547,890)" d="m0 0 8 2 2 4-5-1-5-3z" fill="#DBEEF2"/>
<path transform="translate(796,600)" d="m0 0 3 1-4 5-7 1 5-4z" fill="#319EA4"/>
<path transform="translate(1337,1342)" d="m0 0 10 1 6 1v1h-14l-2-1z" fill="#4AA4A8"/>
<path transform="translate(932,995)" d="m0 0 11 1 2 2h-9l-4-1z" fill="#D2E8ED"/>
</svg>
