<?xml version="1.0" encoding="UTF-8"?>
<svg version="1.1" viewBox="0 0 1648 1060" width="1280" height="1280" xmlns="http://www.w3.org/2000/svg">
<path transform="translate(0)" d="m0 0h1648v1060h-1648z" fill="#D4E8EB"/>
<path transform="translate(712,244)" d="m0 0h170l5 5 2 7 1 69h176l1-1 1-51 3-6 7-3h120l9 1 4 4 1 3 1 117-1 15-7 6h-131l-6-6-1-54h-177v72l23 8 23 10 26 14 17 11 17 12 14 11 15 13 34 34 9 11 12 15 12 17 13 20 10 17 13 24 14 33 9 25 7 24 6 25 5 31 3 31v23l-4 7-4 2h-7l-5-3-3-5-3-46-5-32-7-30-9-29-11-28-12-26-13-24-14-22-10-14-10-13-9-11-18-20-16-16-8-7-13-11-12-9-19-13-24-14-16-8-25-10-21-7-26-6-32-4h-39l-26 3-28 6-26 8-24 10-16 8-21 12-22 15-13 10-14 12-10 9-21 21-9 11-10 12-14 19-7 10-8 13-15 26-13 27-11 28-9 28-7 29-5 30-2 17-2 35-3 6-5 3-9-1-5-5-1-4v-19l3-32 5-32 7-29 7-23 8-23 11-26 10-19 7-14 9-15 18-27 12-16 13-16 12-13 7-8 11-11 8-7 15-13 17-13 16-11 21-13 27-14 28-11 10-4v-71h-177l-1 52-3 5-4 3h-126v-145l1-1h119l8 1 4 5 1 4 1 51 177 1 1-73 3-6z" fill="#000303"/>
<path transform="translate(730,267)" d="m0 0h134l2 5v134l-1 1-112 1h-25l-1-1v-84l1-55z" fill="#00807D"/>
<path transform="translate(404,288)" d="m0 0h97l1 1 1 96-1 2h-98z" fill="#00807D"/>
<path transform="translate(1092,288)" d="m0 0h96l1 1v97l-1 1h-96l-1-1v-97z" fill="#00807D"/>
</svg>
