<?xml version="1.0" encoding="UTF-8"?>
<svg version="1.1" viewBox="0 0 2048 1670" width="100" height="50" xmlns="http://www.w3.org/2000/svg">
<path transform="translate(890,33)" d="m0 0 7 1 8 7 2 4v10l-6 15-8 14-6 11-15 25-12 19-10 16-14 22-11 17-26 40-11 17-15 23-16 25-19 28-29 43-19 29-13 20-14 22-24 38-28 44-12 19-13 20-14 22-13 20-9 14-11 17-14 22-18 27-10 16-22 33-14 22-19 29-14 22-16 25-15 23-10 16-14 22-9 14-6 9 8-4 19-14 15-11 20-14 26-17 18-11 26-15 25-12 16-5h11l10 5 5 8v8l-4 9-9 9-13 8-22 12-26 15-21 13-16 11-10 9-5 5-6 8-3 7-1 8 2 9 5 7 10 5 13 2h10l25-3 25-6 33-11 31-13 25-12 21-11 17-10 19-12 16-11 14-10 13-10 16-13 8-7 9-11 10-9 16-10 16-8 21-7 15-3 8-1h20l15 3 10 4 12 8 7 7 6 9 4 13v13l-3 14-5 12-7 11-7 6-10 5-8 1-10-4-5-5-3-5v-9l5-10 8-11 2-9-4-6-5-2-13-1-16 2-18 6-15 9-12 10-6 9-1 5 4 10 7 9 12 13 7 7 6 5 7 8 8 9 9 14 6 10 5-2 24-13 39-22 25-14 21-12 25-14 17-10 25-14 15-9 22-12 16-7 18-6h10l8 3 5 6 2 5v8l-4 15-11 23-9 15-9 16-9 17 4-2 28-22 15-11 13-9 17-11 25-14 24-10 19-5 7-1h20l12 3 12 6 10 9 8 9 1 2 8-1 16-5 29-11 28-10 35-11 28-7 28-5h2l2-5 7-8 2-1h14l8 4 4 6v12l-6 18-20 39-7 16 6-4 10-9 11-9 16-13 19-14 21-14 14-8 14-7 16-5 15-1 9 2 6 4 6 7 4 9 2 9 1 18-3 27-8 36-6 31v13l3 3h7l15-5 20-10 23-14 30-20 23-16 17-12 18-13 19-14 21-16 12-9 18-14 14-9 12-5h8l8 4 4 5 3 7v7l-5 10-12 13-12 11-14 11-16 13-17 13-15 12-36 26-23 16-17 11-27 16-27 14-20 8-17 5-9 2h-22l-10-4-8-6-6-9-4-10-3-16v-17l3-26 6-31 6-25 2-12-19 10-16 11-14 11-28 24-10 9-13 12-7 7-8 7-14 14-8 7-12 12-8 7-7 7-8 7-14 12-10 6h-10l-9-3-9-7-2-5v-12l6-16 11-24 15-29 12-22 7-12 6-11 8-15-25 8-49 16-40 14-27 11-5 2-9 14-14 19-12 14-11 11-15 11-16 8-19 7-13 3h-13l-10-3-6-4-7-8-4-8-1-3v-10l4-11 8-11 13-13 16-12 21-13 22-12 12-6 12-8v-3l-14 1-12 3-15 6-20 10-21 13-19 13-16 13-10 8-11 9-14 12-16 15-8 7-12 12-8 7-23 23-9 11-12 13-12 16-14 22-21 35-13 23-14 25-10 17-13 23-12 21-13 23-14 25-10 18-13 23-14 25-14 24-13 24-12 21-14 25-12 21-14 25-9 16-12 21-14 25-12 21-10 18-9 14-4 5-6 4-7 2-9-1-8-5-5-5-1-3v-7l4-12 16-33 9-17 9-16 40-72 14-25 14-24 12-22 14-24 15-27 7-14 10-17 14-25 12-22 14-24 14-25 28-49 28-50 15-27 14-25 13-23 15-27 14-24 14-26 11-19 15-27 8-14-24 14-22 13-19 11-77 44-27 15-22 12-14 9-11 9-7 8-13 12-15 11-14 8-16 7-20 6-11 2h-15l-8-3-6-5-3-5-1-4v-12l5-10 7-7 15-10 18-10 27-14 16-10 10-8 2-3-1-9-6-9-11-12-30-30-11-14-2-3-4 1-18 13-17 12-30 20-25 15-22 12-19 9-22 8-29 7-43 8-24 3h-19l-19-3-15-6-11-7-7-6-7-10-8-16-8 1-10 6-10 8-12 11-8 7-21 21-1 2h-2l-2 4-12 12-11 8-10 3h-7l-10-5-5-6-3-6v-10l4-12 12-25 12-22 11-19 16-27 9-15 26-42 14-22 10-16 14-22 16-25 15-23 16-25 22-34 13-20 11-17 13-20 22-34 13-20 16-25 10-15 12-19 15-23 11-17 15-23 16-25 17-26 16-25 10-15 7-11 30-46 11-17 15-23 10-15 11-17 13-20 19-29 38-57 26-38 13-18 14-19 13-15 9-8z" fill="#09807F"/>
</svg>
