<?xml version="1.0" encoding="UTF-8"?>
<svg version="1.1" viewBox="0 0 1704 1160" width="1280" height="1280" xmlns="http://www.w3.org/2000/svg">
<path transform="translate(0)" d="m0 0h1704v1160h-1704z" fill="#D4E9EB"/>
<path transform="translate(787,323)" d="m0 0h217l9 3 7 6 8 14 14 26 16 29 8 14 1 3h123l19 2 15 5 15 8 13 12 9 13 5 12 2 9 1 17v341l-1 47-4 15-7 13-10 12-16 11-11 5-16 4-34 1h-569l-18-2-16-5-12-7-10-8-9-10-6-11-4-11-2-9v-396l3-16 5-12 9-13 8-8 13-9 11-5 10-3 7-1 24-1h102l10-1 13-24 11-19 6-12 12-22 7-10 8-6z" fill="#D4E9EB"/>
<path transform="translate(787,323)" d="m0 0h217l9 3 7 6 8 14 14 26 16 29 8 14 1 3h123l19 2 15 5 15 8 13 12 9 13 5 12 2 9 1 17v341l-1 47-4 15-7 13-10 12-16 11-11 5-16 4-34 1h-569l-18-2-16-5-12-7-10-8-9-10-6-11-4-11-2-9v-396l3-16 5-12 9-13 8-8 13-9 11-5 10-3 7-1 24-1h102l10-1 13-24 11-19 6-12 12-22 7-10 8-6zm-195 143-10 5-8 9-2 5-1 8v383l4 10 4 5 9 5 4 1h608l8-3 8-6 5-7 1-6v-384l-2-10-6-8-8-5-10-2z" fill="#000404"/>
<path transform="translate(878,531)" d="m0 0h38l22 4 27 9 16 8 16 10 11 9 10 9 10 11 12 18 8 16 6 16 5 24 1 16-1 19-5 22-7 19-8 15-9 13-9 11-12 12-12 9-14 9-15 8-15 6-23 6-12 2-13 1h-14l-22-2-25-6-19-7-19-10-14-10-11-9-11-11-12-16-8-13-7-15-6-19-3-16v-10l-1-8 1-12 1-10 5-21 7-18 9-16 9-12 12-14 9-8 13-10 15-9 14-7 27-9 15-3z" fill="#000202"/>
<path transform="translate(892,577)" d="m0 0h10l18 2 19 5 16 7 16 10 10 8 9 9 10 15 6 12 5 15 2 14v17l-3 15-5 15-6 11-8 11-9 10-13 11-14 8-10 5-14 5-21 4h-25l-18-3-18-6-16-8-10-6-13-11-9-10-11-18-6-15-3-13-1-9v-12l4-20 5-13 8-15 9-11 3-4h2l1-3 17-13 16-8 16-6 19-4z" fill="#00807E"/>
<path transform="translate(805,370)" d="m0 0h182l5 8 9 16 12 22v2l-2 1h-231l1-5 9-16 13-24z" fill="#D4E9EB"/>
</svg>
