<?xml version="1.0" encoding="UTF-8"?>
<svg version="1.1" viewBox="0 0 2048 1476" width="1280" height="1280" xmlns="http://www.w3.org/2000/svg">
<path transform="translate(0)" d="m0 0h2048v1476h-2048z" fill="#D4E8EA"/>
<path transform="translate(988,198)" d="m0 0h52l21 2 50 6 36 6 34 8 29 9 24 9 24 11 18 10 21 14 1 4-22 33-29 44-58 87-15 22-6-1-16-8-24-10-25-8-33-7-14-3-15-1-31 1-28 4-25 6-26 9-24 11-19 11-16 11-13 10-14 12-21 21-11 14-11 15-9 15-12 23-8 20-7 24-4 20-2 16v39l3 25 5 26 8 27 8 21 13 27 12 20 12 17 9 11 9 10 7 8 13 12 14 11 14 10 15 9 22 11 24 9 22 6 22 4 17 2 17 1h21l14-1 1 1h9l28-5 25-7 24-9 22-11 18-11 16-12 14-12 16-16 13-17 8-13 10-21 5-17 3-20h-174l-37-1-2-1-26-1v-176h27l11 1 465 1 1 10 1 30v33l-2 33-4 36-6 34-9 36-12 36-11 26-12 25-12 22-8 13-20 30-14 19-14 17-9 11-14 15-12 13-8 7-7 7-11 9-13 11-19 14-18 12-20 12-26 14-28 13-35 13-26 8-28 7-33 6-34 4-64-1-40-4-36-6-36-9-36-12-20-8-24-11-22-11-22-13-17-11-17-12-17-13-11-9-14-12-7-7-8-7-13-13-7-8-9-10-9-11-12-15-12-17-10-15-9-15-9-16-12-23-13-30-11-31-8-28-6-26-5-28-4-34-1-13-1-28v-13l1-28 3-30 5-30 7-31 9-29 8-22 10-23 12-25 12-21 14-22 10-14 12-16 10-12 7-8 11-12 7-8 15-15 8-7 11-10 14-11 15-12 20-14 22-14 21-12 27-14 25-11 24-9 25-8 28-7 33-6z" fill="#00807E"/>
</svg>
