<?xml version="1.0" encoding="UTF-8"?>
<svg version="1.1" viewBox="0 0 1684 1188" width="1280" height="1280" xmlns="http://www.w3.org/2000/svg">
<path transform="translate(0)" d="m0 0h1684v1188h-1684z" fill="#D3E8EA"/>
<path transform="translate(773,207)" d="m0 0h26l30 2 36 6 25 6 33 11 23 10 16 8 15 8 19 12 16 11 15 12 11 9 15 14 15 15 9 11 11 13 13 19 7 10 9 15 12 22 12 27 10 28 7 25 6 29 3 24 1 13v52l-3 27-6 34-8 29-8 23-8 20-8 16-10 19-13 21-8 11-12 16-11 13-14 16-8 7-13 13-10 8-11 9-18 13-21 13-18 10-16 8-30 12-28 9-26 6-25 4-20 2-18 1h-20l-37-3-29-5-25-6-23-7-27-11-27-13-14-8-19-12-16-12-16-13-10-9-15-14-14-15-10-11-12-16-10-14-12-19-13-24-11-23-11-29-8-29-6-29-3-20-2-26v-35l3-34 5-29 8-32 7-21 11-27 12-25 10-17 7-11 12-17 12-16 9-10 7-8 26-26 11-9 15-12 17-12 18-11 23-13 25-11 24-9 24-7 26-6 36-5z" fill="#008081"/>
<path transform="translate(1044,362)" d="m0 0h4l9 11 10 13 16 24 13 24 9 19 10 26 7 24 6 28 5 38-1 6h-181l-1-2-3-58-5-45-6-37 9-4 25-13 20-12 16-11 16-12 11-9 10-9z" fill="#D3E8EA"/>
<path transform="translate(528,362)" d="m0 0 4 1 14 12 12 10 18 13 11 7 13 8 18 10 20 9 1 5-5 29-5 44-3 43-1 20-1 2h-180l-1-1v-10l4-30 5-25 7-25 7-20 7-17 8-16 12-22 6-9 9-13 12-16z" fill="#D3E8EA"/>
<path transform="translate(951,611)" d="m0 0h180l1 1v13l-4 30-5 24-8 27-8 22-8 18-10 19-10 17-13 19-10 13-9 11-4-2-11-11-16-12-19-14-20-12-19-10-20-10-1-1v-7l5-31 4-35 3-43 1-25z" fill="#D3E8EA"/>
<path transform="translate(443,611)" d="m0 0h180l2 2 3 51 4 40 6 41 1 7-6 4-23 11-20 12-17 11-16 12-14 11-12 11-4-1-11-13-12-17-13-20-14-26-11-25-9-27-6-23-4-21-4-29z" fill="#D3E8EA"/>
<path transform="translate(673,446)" d="m0 0 9 2 23 6 27 5 37 4h35l22-2 23-3 25-5 23-6 6-1 3 16 4 30 3 34 2 32v16l-1 1h-253l-1-1 1-31 3-37 5-42 3-17z" fill="#D3E8EA"/>
<path transform="translate(661,611)" d="m0 0h253l1 1v16l-3 45-4 36-4 28-1 3-5-1-32-8-29-5-19-2-16-1h-31l-26 2-36 6-24 6-9 3h-4l-6-42-4-42-2-30v-14z" fill="#D3E8EA"/>
<path transform="translate(782,243)" d="m0 0h11l9 2 14 7 9 7 9 9 13 17 12 20 11 23 7 17 9 27 10 35-1 4-9 3-22 6-27 5-27 3h-43l-29-3-22-4-32-8-4-2 1-8 9-32 8-24 9-22 12-25 7-11 8-12 11-13 10-9 14-8 7-3z" fill="#D3E8EA"/>
<path transform="translate(767,758)" d="m0 0h42l29 3 26 5 23 6 8 3 1 3-5 18-9 30-9 24-9 21-11 20-10 15-13 16-3 3h-2v2l-11 8-12 6-7 2h-14l-13-4-14-9-16-16-12-17-9-16-13-27-10-27-10-33-4-14v-5l8-3 32-8 25-4z" fill="#D3E8EA"/>
<path transform="translate(643,789)" d="m0 0h4l9 32 10 30 6 15 10 23 13 23 10 15 3 4v2l-8-1-26-8-26-10-28-14-24-15-19-14-13-11-9-8-1-3 15-13 14-11 27-18 21-12z" fill="#D3E8EA"/>
<path transform="translate(706,252)" d="m0 0 2 1-2 4-13 20-14 27-7 15-9 24-7 21-7 26-2 7-5-1-16-8-16-9-21-14-17-13-13-11-4-4 1-4 12-11 14-11 18-13 21-12 23-12 16-7 36-12z" fill="#D3E8EA"/>
<path transform="translate(867,252)" d="m0 0 16 4 27 9 30 13 22 12 22 14 13 10 16 13 8 7-1 4-14 12-18 14-23 15-16 9-17 9-4-1-9-34-10-29-11-26-8-16-7-13-13-20-3-3z" fill="#D3E8EA"/>
<path transform="translate(929,789)" d="m0 0 5 1 23 12 24 15 16 12 13 10 11 10-2 4-7 7-10 8-17 13-17 11-17 10-31 15-18 7-30 9h-4l1-4 11-16 10-18 8-16 11-26 14-43 5-20z" fill="#D3E8EA"/>
</svg>
